M48
;GenerationSoftware,Autodesk,EAGLE,8.7.0*%
;CreationDate,2018-03-21T21:55:13Z*%
FMAT,2
ICI,OFF
METRIC,TZ,000.000
T3C0.350
T2C1.270
T1C2.700
%
G90
M71
T1
X66000Y10900
X6950Y65000
X63500Y65000
X3000Y10900
T2
X61476Y9495
X7094Y12543
T3
X61519Y32537
X51867Y32969
X56566Y35306
X51841Y37668
X61443Y37516
X44831Y34925
X35662Y27280
X35636Y20955
X26391Y32741
X26391Y28042
X26416Y23216
X27584Y18415
X56591Y40310
X57175Y3810
X48692Y9500
X51867Y3810
X46533Y3810
X41224Y3810
X35712Y3785
X30404Y3785
X25070Y3785
X19761Y3785
X25070Y9550
X19761Y9550
X37871Y9474
X30404Y9550
X43383Y9500
X14605Y3810
X9296Y3810
X11582Y33604
X5283Y32461
X5283Y27762
X5309Y22936
X11557Y38913
X5309Y37668
X5283Y42494
X5283Y47193
X15367Y45720
X12014Y49911
X14808Y54966
X25908Y52959
X16916Y65735
X19609Y59817
X12141Y61697
X7493Y56972
X12725Y71120
X19888Y71095
X26289Y71171
X43739Y61798
X44196Y57506
X40234Y64897
X35738Y64973
X31648Y65989
X32588Y61468
X32563Y57810
X25908Y56286
X43536Y71171
X49530Y71095
X49352Y66218
X56210Y66091
X56083Y71018
X56261Y61214
X56464Y55829
X61189Y58776
X61189Y53010
X61239Y47727
X56566Y49835
X56566Y45136
X61417Y42342
X59461Y15011
X58115Y9576
X48895Y14910
X45110Y14884
X41300Y14884
X37516Y14910
X33071Y14808
X53473Y15620
X54116Y16262
X31679Y34407
X32588Y34407
X38911Y18453
X39819Y18453
X35766Y34681
X36675Y34681
X46528Y18448
X47437Y18448
X39850Y34707
X43815Y47110
X30160Y38412
X43891Y40988
X43858Y45070
X18306Y40858
X17214Y39792
X16137Y38994
X15860Y35705
X15192Y36629
X12217Y26086
X18694Y37084
X20627Y37584
X21214Y33599
X26406Y41930
X15883Y34585
X40759Y34707
X31631Y52108
X33668Y52108
X38768Y52108
X40810Y52108
X40383Y48128
X35276Y48661
X31024Y43030
X40404Y38227
X19223Y28108
X34557Y39832
X13716Y41394
X12436Y9517
X19271Y52489
X48123Y55128
X53500Y9454
X14610Y9528
X24887Y62004
X13805Y24275
X19083Y24282
X11077Y16081
X61544Y23012
X56591Y25781
X61519Y27838
X56566Y30607
X54026Y21412
X13719Y28067
M30