G04 EAGLE Gerber X2 export*
G75*
%MOMM*%
%FSLAX34Y34*%
%LPD*%
%AMOC8*
5,1,8,0,0,1.08239X$1,22.5*%
G01*
%ADD10C,0.254000*%


D10*
X0Y0D02*
X690000Y0D01*
X690000Y494000D01*
X657000Y494000D01*
X657000Y765000D01*
X47000Y765000D01*
X47000Y650000D01*
X26000Y650000D01*
X26000Y542000D01*
X0Y542000D01*
X0Y0D01*
X83000Y649518D02*
X82931Y648556D01*
X82794Y647602D01*
X82589Y646659D01*
X82317Y645734D01*
X81980Y644830D01*
X81580Y643953D01*
X81118Y643107D01*
X80596Y642296D01*
X80018Y641524D01*
X79387Y640795D01*
X78705Y640113D01*
X77976Y639482D01*
X77204Y638904D01*
X76393Y638382D01*
X75547Y637920D01*
X74670Y637520D01*
X73766Y637183D01*
X72841Y636911D01*
X71899Y636706D01*
X70944Y636569D01*
X69982Y636500D01*
X69018Y636500D01*
X68056Y636569D01*
X67102Y636706D01*
X66159Y636911D01*
X65234Y637183D01*
X64330Y637520D01*
X63453Y637920D01*
X62607Y638382D01*
X61796Y638904D01*
X61024Y639482D01*
X60295Y640113D01*
X59613Y640795D01*
X58982Y641524D01*
X58404Y642296D01*
X57882Y643107D01*
X57420Y643953D01*
X57020Y644830D01*
X56683Y645734D01*
X56411Y646659D01*
X56206Y647602D01*
X56069Y648556D01*
X56000Y649518D01*
X56000Y650482D01*
X56069Y651444D01*
X56206Y652399D01*
X56411Y653341D01*
X56683Y654266D01*
X57020Y655170D01*
X57420Y656047D01*
X57882Y656893D01*
X58404Y657704D01*
X58982Y658476D01*
X59613Y659205D01*
X60295Y659887D01*
X61024Y660518D01*
X61796Y661096D01*
X62607Y661618D01*
X63453Y662080D01*
X64330Y662480D01*
X65234Y662817D01*
X66159Y663089D01*
X67102Y663294D01*
X68056Y663431D01*
X69018Y663500D01*
X69982Y663500D01*
X70944Y663431D01*
X71899Y663294D01*
X72841Y663089D01*
X73766Y662817D01*
X74670Y662480D01*
X75547Y662080D01*
X76393Y661618D01*
X77204Y661096D01*
X77976Y660518D01*
X78705Y659887D01*
X79387Y659205D01*
X80018Y658476D01*
X80596Y657704D01*
X81118Y656893D01*
X81580Y656047D01*
X81980Y655170D01*
X82317Y654266D01*
X82589Y653341D01*
X82794Y652399D01*
X82931Y651444D01*
X83000Y650482D01*
X83000Y649518D01*
X648500Y649518D02*
X648431Y648556D01*
X648294Y647602D01*
X648089Y646659D01*
X647817Y645734D01*
X647480Y644830D01*
X647080Y643953D01*
X646618Y643107D01*
X646096Y642296D01*
X645518Y641524D01*
X644887Y640795D01*
X644205Y640113D01*
X643476Y639482D01*
X642704Y638904D01*
X641893Y638382D01*
X641047Y637920D01*
X640170Y637520D01*
X639266Y637183D01*
X638341Y636911D01*
X637399Y636706D01*
X636444Y636569D01*
X635482Y636500D01*
X634518Y636500D01*
X633556Y636569D01*
X632602Y636706D01*
X631659Y636911D01*
X630734Y637183D01*
X629830Y637520D01*
X628953Y637920D01*
X628107Y638382D01*
X627296Y638904D01*
X626524Y639482D01*
X625795Y640113D01*
X625113Y640795D01*
X624482Y641524D01*
X623904Y642296D01*
X623382Y643107D01*
X622920Y643953D01*
X622520Y644830D01*
X622183Y645734D01*
X621911Y646659D01*
X621706Y647602D01*
X621569Y648556D01*
X621500Y649518D01*
X621500Y650482D01*
X621569Y651444D01*
X621706Y652399D01*
X621911Y653341D01*
X622183Y654266D01*
X622520Y655170D01*
X622920Y656047D01*
X623382Y656893D01*
X623904Y657704D01*
X624482Y658476D01*
X625113Y659205D01*
X625795Y659887D01*
X626524Y660518D01*
X627296Y661096D01*
X628107Y661618D01*
X628953Y662080D01*
X629830Y662480D01*
X630734Y662817D01*
X631659Y663089D01*
X632602Y663294D01*
X633556Y663431D01*
X634518Y663500D01*
X635482Y663500D01*
X636444Y663431D01*
X637399Y663294D01*
X638341Y663089D01*
X639266Y662817D01*
X640170Y662480D01*
X641047Y662080D01*
X641893Y661618D01*
X642704Y661096D01*
X643476Y660518D01*
X644205Y659887D01*
X644887Y659205D01*
X645518Y658476D01*
X646096Y657704D01*
X646618Y656893D01*
X647080Y656047D01*
X647480Y655170D01*
X647817Y654266D01*
X648089Y653341D01*
X648294Y652399D01*
X648431Y651444D01*
X648500Y650482D01*
X648500Y649518D01*
X43500Y108518D02*
X43431Y107556D01*
X43294Y106602D01*
X43089Y105659D01*
X42817Y104734D01*
X42480Y103830D01*
X42080Y102953D01*
X41618Y102107D01*
X41096Y101296D01*
X40518Y100524D01*
X39887Y99795D01*
X39205Y99113D01*
X38476Y98482D01*
X37704Y97904D01*
X36893Y97382D01*
X36047Y96920D01*
X35170Y96520D01*
X34266Y96183D01*
X33341Y95911D01*
X32399Y95706D01*
X31444Y95569D01*
X30482Y95500D01*
X29518Y95500D01*
X28556Y95569D01*
X27602Y95706D01*
X26659Y95911D01*
X25734Y96183D01*
X24830Y96520D01*
X23953Y96920D01*
X23107Y97382D01*
X22296Y97904D01*
X21524Y98482D01*
X20795Y99113D01*
X20113Y99795D01*
X19482Y100524D01*
X18904Y101296D01*
X18382Y102107D01*
X17920Y102953D01*
X17520Y103830D01*
X17183Y104734D01*
X16911Y105659D01*
X16706Y106602D01*
X16569Y107556D01*
X16500Y108518D01*
X16500Y109482D01*
X16569Y110444D01*
X16706Y111399D01*
X16911Y112341D01*
X17183Y113266D01*
X17520Y114170D01*
X17920Y115047D01*
X18382Y115893D01*
X18904Y116704D01*
X19482Y117476D01*
X20113Y118205D01*
X20795Y118887D01*
X21524Y119518D01*
X22296Y120096D01*
X23107Y120618D01*
X23953Y121080D01*
X24830Y121480D01*
X25734Y121817D01*
X26659Y122089D01*
X27602Y122294D01*
X28556Y122431D01*
X29518Y122500D01*
X30482Y122500D01*
X31444Y122431D01*
X32399Y122294D01*
X33341Y122089D01*
X34266Y121817D01*
X35170Y121480D01*
X36047Y121080D01*
X36893Y120618D01*
X37704Y120096D01*
X38476Y119518D01*
X39205Y118887D01*
X39887Y118205D01*
X40518Y117476D01*
X41096Y116704D01*
X41618Y115893D01*
X42080Y115047D01*
X42480Y114170D01*
X42817Y113266D01*
X43089Y112341D01*
X43294Y111399D01*
X43431Y110444D01*
X43500Y109482D01*
X43500Y108518D01*
X673500Y108518D02*
X673431Y107556D01*
X673294Y106602D01*
X673089Y105659D01*
X672817Y104734D01*
X672480Y103830D01*
X672080Y102953D01*
X671618Y102107D01*
X671096Y101296D01*
X670518Y100524D01*
X669887Y99795D01*
X669205Y99113D01*
X668476Y98482D01*
X667704Y97904D01*
X666893Y97382D01*
X666047Y96920D01*
X665170Y96520D01*
X664266Y96183D01*
X663341Y95911D01*
X662399Y95706D01*
X661444Y95569D01*
X660482Y95500D01*
X659518Y95500D01*
X658556Y95569D01*
X657602Y95706D01*
X656659Y95911D01*
X655734Y96183D01*
X654830Y96520D01*
X653953Y96920D01*
X653107Y97382D01*
X652296Y97904D01*
X651524Y98482D01*
X650795Y99113D01*
X650113Y99795D01*
X649482Y100524D01*
X648904Y101296D01*
X648382Y102107D01*
X647920Y102953D01*
X647520Y103830D01*
X647183Y104734D01*
X646911Y105659D01*
X646706Y106602D01*
X646569Y107556D01*
X646500Y108518D01*
X646500Y109482D01*
X646569Y110444D01*
X646706Y111399D01*
X646911Y112341D01*
X647183Y113266D01*
X647520Y114170D01*
X647920Y115047D01*
X648382Y115893D01*
X648904Y116704D01*
X649482Y117476D01*
X650113Y118205D01*
X650795Y118887D01*
X651524Y119518D01*
X652296Y120096D01*
X653107Y120618D01*
X653953Y121080D01*
X654830Y121480D01*
X655734Y121817D01*
X656659Y122089D01*
X657602Y122294D01*
X658556Y122431D01*
X659518Y122500D01*
X660482Y122500D01*
X661444Y122431D01*
X662399Y122294D01*
X663341Y122089D01*
X664266Y121817D01*
X665170Y121480D01*
X666047Y121080D01*
X666893Y120618D01*
X667704Y120096D01*
X668476Y119518D01*
X669205Y118887D01*
X669887Y118205D01*
X670518Y117476D01*
X671096Y116704D01*
X671618Y115893D01*
X672080Y115047D01*
X672480Y114170D01*
X672817Y113266D01*
X673089Y112341D01*
X673294Y111399D01*
X673431Y110444D01*
X673500Y109482D01*
X673500Y108518D01*
X83000Y649518D02*
X82931Y648556D01*
X82794Y647602D01*
X82589Y646659D01*
X82317Y645734D01*
X81980Y644830D01*
X81580Y643953D01*
X81118Y643107D01*
X80596Y642296D01*
X80018Y641524D01*
X79387Y640795D01*
X78705Y640113D01*
X77976Y639482D01*
X77204Y638904D01*
X76393Y638382D01*
X75547Y637920D01*
X74670Y637520D01*
X73766Y637183D01*
X72841Y636911D01*
X71899Y636706D01*
X70944Y636569D01*
X69982Y636500D01*
X69018Y636500D01*
X68056Y636569D01*
X67102Y636706D01*
X66159Y636911D01*
X65234Y637183D01*
X64330Y637520D01*
X63453Y637920D01*
X62607Y638382D01*
X61796Y638904D01*
X61024Y639482D01*
X60295Y640113D01*
X59613Y640795D01*
X58982Y641524D01*
X58404Y642296D01*
X57882Y643107D01*
X57420Y643953D01*
X57020Y644830D01*
X56683Y645734D01*
X56411Y646659D01*
X56206Y647602D01*
X56069Y648556D01*
X56000Y649518D01*
X56000Y650482D01*
X56069Y651444D01*
X56206Y652399D01*
X56411Y653341D01*
X56683Y654266D01*
X57020Y655170D01*
X57420Y656047D01*
X57882Y656893D01*
X58404Y657704D01*
X58982Y658476D01*
X59613Y659205D01*
X60295Y659887D01*
X61024Y660518D01*
X61796Y661096D01*
X62607Y661618D01*
X63453Y662080D01*
X64330Y662480D01*
X65234Y662817D01*
X66159Y663089D01*
X67102Y663294D01*
X68056Y663431D01*
X69018Y663500D01*
X69982Y663500D01*
X70944Y663431D01*
X71899Y663294D01*
X72841Y663089D01*
X73766Y662817D01*
X74670Y662480D01*
X75547Y662080D01*
X76393Y661618D01*
X77204Y661096D01*
X77976Y660518D01*
X78705Y659887D01*
X79387Y659205D01*
X80018Y658476D01*
X80596Y657704D01*
X81118Y656893D01*
X81580Y656047D01*
X81980Y655170D01*
X82317Y654266D01*
X82589Y653341D01*
X82794Y652399D01*
X82931Y651444D01*
X83000Y650482D01*
X83000Y649518D01*
X648500Y649518D02*
X648431Y648556D01*
X648294Y647602D01*
X648089Y646659D01*
X647817Y645734D01*
X647480Y644830D01*
X647080Y643953D01*
X646618Y643107D01*
X646096Y642296D01*
X645518Y641524D01*
X644887Y640795D01*
X644205Y640113D01*
X643476Y639482D01*
X642704Y638904D01*
X641893Y638382D01*
X641047Y637920D01*
X640170Y637520D01*
X639266Y637183D01*
X638341Y636911D01*
X637399Y636706D01*
X636444Y636569D01*
X635482Y636500D01*
X634518Y636500D01*
X633556Y636569D01*
X632602Y636706D01*
X631659Y636911D01*
X630734Y637183D01*
X629830Y637520D01*
X628953Y637920D01*
X628107Y638382D01*
X627296Y638904D01*
X626524Y639482D01*
X625795Y640113D01*
X625113Y640795D01*
X624482Y641524D01*
X623904Y642296D01*
X623382Y643107D01*
X622920Y643953D01*
X622520Y644830D01*
X622183Y645734D01*
X621911Y646659D01*
X621706Y647602D01*
X621569Y648556D01*
X621500Y649518D01*
X621500Y650482D01*
X621569Y651444D01*
X621706Y652399D01*
X621911Y653341D01*
X622183Y654266D01*
X622520Y655170D01*
X622920Y656047D01*
X623382Y656893D01*
X623904Y657704D01*
X624482Y658476D01*
X625113Y659205D01*
X625795Y659887D01*
X626524Y660518D01*
X627296Y661096D01*
X628107Y661618D01*
X628953Y662080D01*
X629830Y662480D01*
X630734Y662817D01*
X631659Y663089D01*
X632602Y663294D01*
X633556Y663431D01*
X634518Y663500D01*
X635482Y663500D01*
X636444Y663431D01*
X637399Y663294D01*
X638341Y663089D01*
X639266Y662817D01*
X640170Y662480D01*
X641047Y662080D01*
X641893Y661618D01*
X642704Y661096D01*
X643476Y660518D01*
X644205Y659887D01*
X644887Y659205D01*
X645518Y658476D01*
X646096Y657704D01*
X646618Y656893D01*
X647080Y656047D01*
X647480Y655170D01*
X647817Y654266D01*
X648089Y653341D01*
X648294Y652399D01*
X648431Y651444D01*
X648500Y650482D01*
X648500Y649518D01*
X43500Y108518D02*
X43431Y107556D01*
X43294Y106602D01*
X43089Y105659D01*
X42817Y104734D01*
X42480Y103830D01*
X42080Y102953D01*
X41618Y102107D01*
X41096Y101296D01*
X40518Y100524D01*
X39887Y99795D01*
X39205Y99113D01*
X38476Y98482D01*
X37704Y97904D01*
X36893Y97382D01*
X36047Y96920D01*
X35170Y96520D01*
X34266Y96183D01*
X33341Y95911D01*
X32399Y95706D01*
X31444Y95569D01*
X30482Y95500D01*
X29518Y95500D01*
X28556Y95569D01*
X27602Y95706D01*
X26659Y95911D01*
X25734Y96183D01*
X24830Y96520D01*
X23953Y96920D01*
X23107Y97382D01*
X22296Y97904D01*
X21524Y98482D01*
X20795Y99113D01*
X20113Y99795D01*
X19482Y100524D01*
X18904Y101296D01*
X18382Y102107D01*
X17920Y102953D01*
X17520Y103830D01*
X17183Y104734D01*
X16911Y105659D01*
X16706Y106602D01*
X16569Y107556D01*
X16500Y108518D01*
X16500Y109482D01*
X16569Y110444D01*
X16706Y111399D01*
X16911Y112341D01*
X17183Y113266D01*
X17520Y114170D01*
X17920Y115047D01*
X18382Y115893D01*
X18904Y116704D01*
X19482Y117476D01*
X20113Y118205D01*
X20795Y118887D01*
X21524Y119518D01*
X22296Y120096D01*
X23107Y120618D01*
X23953Y121080D01*
X24830Y121480D01*
X25734Y121817D01*
X26659Y122089D01*
X27602Y122294D01*
X28556Y122431D01*
X29518Y122500D01*
X30482Y122500D01*
X31444Y122431D01*
X32399Y122294D01*
X33341Y122089D01*
X34266Y121817D01*
X35170Y121480D01*
X36047Y121080D01*
X36893Y120618D01*
X37704Y120096D01*
X38476Y119518D01*
X39205Y118887D01*
X39887Y118205D01*
X40518Y117476D01*
X41096Y116704D01*
X41618Y115893D01*
X42080Y115047D01*
X42480Y114170D01*
X42817Y113266D01*
X43089Y112341D01*
X43294Y111399D01*
X43431Y110444D01*
X43500Y109482D01*
X43500Y108518D01*
X673500Y108518D02*
X673431Y107556D01*
X673294Y106602D01*
X673089Y105659D01*
X672817Y104734D01*
X672480Y103830D01*
X672080Y102953D01*
X671618Y102107D01*
X671096Y101296D01*
X670518Y100524D01*
X669887Y99795D01*
X669205Y99113D01*
X668476Y98482D01*
X667704Y97904D01*
X666893Y97382D01*
X666047Y96920D01*
X665170Y96520D01*
X664266Y96183D01*
X663341Y95911D01*
X662399Y95706D01*
X661444Y95569D01*
X660482Y95500D01*
X659518Y95500D01*
X658556Y95569D01*
X657602Y95706D01*
X656659Y95911D01*
X655734Y96183D01*
X654830Y96520D01*
X653953Y96920D01*
X653107Y97382D01*
X652296Y97904D01*
X651524Y98482D01*
X650795Y99113D01*
X650113Y99795D01*
X649482Y100524D01*
X648904Y101296D01*
X648382Y102107D01*
X647920Y102953D01*
X647520Y103830D01*
X647183Y104734D01*
X646911Y105659D01*
X646706Y106602D01*
X646569Y107556D01*
X646500Y108518D01*
X646500Y109482D01*
X646569Y110444D01*
X646706Y111399D01*
X646911Y112341D01*
X647183Y113266D01*
X647520Y114170D01*
X647920Y115047D01*
X648382Y115893D01*
X648904Y116704D01*
X649482Y117476D01*
X650113Y118205D01*
X650795Y118887D01*
X651524Y119518D01*
X652296Y120096D01*
X653107Y120618D01*
X653953Y121080D01*
X654830Y121480D01*
X655734Y121817D01*
X656659Y122089D01*
X657602Y122294D01*
X658556Y122431D01*
X659518Y122500D01*
X660482Y122500D01*
X661444Y122431D01*
X662399Y122294D01*
X663341Y122089D01*
X664266Y121817D01*
X665170Y121480D01*
X666047Y121080D01*
X666893Y120618D01*
X667704Y120096D01*
X668476Y119518D01*
X669205Y118887D01*
X669887Y118205D01*
X670518Y117476D01*
X671096Y116704D01*
X671618Y115893D01*
X672080Y115047D01*
X672480Y114170D01*
X672817Y113266D01*
X673089Y112341D01*
X673294Y111399D01*
X673431Y110444D01*
X673500Y109482D01*
X673500Y108518D01*
X621109Y95262D02*
X621048Y95883D01*
X620926Y96495D01*
X620745Y97092D01*
X620506Y97668D01*
X620212Y98219D01*
X619866Y98737D01*
X619470Y99220D01*
X619029Y99661D01*
X618546Y100057D01*
X618028Y100403D01*
X617477Y100697D01*
X616901Y100936D01*
X616304Y101117D01*
X615692Y101239D01*
X615071Y101300D01*
X614447Y101300D01*
X613826Y101239D01*
X613214Y101117D01*
X612617Y100936D01*
X612041Y100697D01*
X611491Y100403D01*
X610972Y100057D01*
X610489Y99661D01*
X610048Y99220D01*
X609652Y98737D01*
X609306Y98219D01*
X609012Y97668D01*
X608773Y97092D01*
X608592Y96495D01*
X608470Y95883D01*
X608409Y95262D01*
X608409Y94638D01*
X608470Y94017D01*
X608592Y93405D01*
X608773Y92808D01*
X609012Y92232D01*
X609306Y91682D01*
X609652Y91163D01*
X610048Y90680D01*
X610489Y90239D01*
X610972Y89843D01*
X611491Y89497D01*
X612041Y89203D01*
X612617Y88964D01*
X613214Y88783D01*
X613826Y88661D01*
X614447Y88600D01*
X615071Y88600D01*
X615692Y88661D01*
X616304Y88783D01*
X616901Y88964D01*
X617477Y89203D01*
X618028Y89497D01*
X618546Y89843D01*
X619029Y90239D01*
X619470Y90680D01*
X619866Y91163D01*
X620212Y91682D01*
X620506Y92232D01*
X620745Y92808D01*
X620926Y93405D01*
X621048Y94017D01*
X621109Y94638D01*
X621109Y95262D01*
X77295Y125742D02*
X77234Y126363D01*
X77112Y126975D01*
X76931Y127572D01*
X76692Y128148D01*
X76398Y128699D01*
X76052Y129217D01*
X75656Y129700D01*
X75215Y130141D01*
X74732Y130537D01*
X74214Y130883D01*
X73663Y131177D01*
X73087Y131416D01*
X72490Y131597D01*
X71878Y131719D01*
X71257Y131780D01*
X70633Y131780D01*
X70012Y131719D01*
X69400Y131597D01*
X68803Y131416D01*
X68227Y131177D01*
X67677Y130883D01*
X67158Y130537D01*
X66675Y130141D01*
X66234Y129700D01*
X65838Y129217D01*
X65492Y128699D01*
X65198Y128148D01*
X64959Y127572D01*
X64778Y126975D01*
X64656Y126363D01*
X64595Y125742D01*
X64595Y125118D01*
X64656Y124497D01*
X64778Y123885D01*
X64959Y123288D01*
X65198Y122712D01*
X65492Y122162D01*
X65838Y121643D01*
X66234Y121160D01*
X66675Y120719D01*
X67158Y120323D01*
X67677Y119977D01*
X68227Y119683D01*
X68803Y119444D01*
X69400Y119263D01*
X70012Y119141D01*
X70633Y119080D01*
X71257Y119080D01*
X71878Y119141D01*
X72490Y119263D01*
X73087Y119444D01*
X73663Y119683D01*
X74214Y119977D01*
X74732Y120323D01*
X75215Y120719D01*
X75656Y121160D01*
X76052Y121643D01*
X76398Y122162D01*
X76692Y122712D01*
X76931Y123288D01*
X77112Y123885D01*
X77234Y124497D01*
X77295Y125118D01*
X77295Y125742D01*
M02*
