G04 EAGLE Gerber X2 export*
G75*
%MOMM*%
%FSLAX34Y34*%
%LPD*%
%AMOC8*
5,1,8,0,0,1.08239X$1,22.5*%
G01*
%ADD10R,6.182400X4.953600*%
%ADD11C,0.127000*%
%ADD12C,0.050800*%
%ADD13C,0.076200*%


D10*
X350150Y449050D03*
D11*
X308200Y430300D02*
X308202Y430409D01*
X308208Y430518D01*
X308218Y430626D01*
X308232Y430734D01*
X308249Y430842D01*
X308271Y430949D01*
X308296Y431055D01*
X308326Y431159D01*
X308359Y431263D01*
X308396Y431366D01*
X308436Y431467D01*
X308480Y431566D01*
X308528Y431664D01*
X308580Y431761D01*
X308634Y431855D01*
X308692Y431947D01*
X308754Y432037D01*
X308819Y432124D01*
X308886Y432210D01*
X308957Y432293D01*
X309031Y432373D01*
X309108Y432450D01*
X309187Y432525D01*
X309269Y432596D01*
X309354Y432665D01*
X309441Y432730D01*
X309530Y432793D01*
X309622Y432851D01*
X309716Y432907D01*
X309811Y432959D01*
X309909Y433008D01*
X310008Y433053D01*
X310109Y433095D01*
X310211Y433132D01*
X310314Y433166D01*
X310419Y433197D01*
X310525Y433223D01*
X310631Y433246D01*
X310739Y433264D01*
X310847Y433279D01*
X310955Y433290D01*
X311064Y433297D01*
X311173Y433300D01*
X311282Y433299D01*
X311391Y433294D01*
X311499Y433285D01*
X311607Y433272D01*
X311715Y433255D01*
X311822Y433235D01*
X311928Y433210D01*
X312033Y433182D01*
X312137Y433150D01*
X312240Y433114D01*
X312342Y433074D01*
X312442Y433031D01*
X312540Y432984D01*
X312637Y432934D01*
X312731Y432880D01*
X312824Y432822D01*
X312915Y432762D01*
X313003Y432698D01*
X313089Y432631D01*
X313172Y432561D01*
X313253Y432488D01*
X313331Y432412D01*
X313406Y432333D01*
X313479Y432251D01*
X313548Y432167D01*
X313614Y432081D01*
X313677Y431992D01*
X313737Y431901D01*
X313794Y431808D01*
X313847Y431713D01*
X313896Y431616D01*
X313942Y431517D01*
X313984Y431417D01*
X314023Y431315D01*
X314058Y431211D01*
X314089Y431107D01*
X314117Y431002D01*
X314140Y430895D01*
X314160Y430788D01*
X314176Y430680D01*
X314188Y430572D01*
X314196Y430463D01*
X314200Y430354D01*
X314200Y430246D01*
X314196Y430137D01*
X314188Y430028D01*
X314176Y429920D01*
X314160Y429812D01*
X314140Y429705D01*
X314117Y429598D01*
X314089Y429493D01*
X314058Y429389D01*
X314023Y429285D01*
X313984Y429183D01*
X313942Y429083D01*
X313896Y428984D01*
X313847Y428887D01*
X313794Y428792D01*
X313737Y428699D01*
X313677Y428608D01*
X313614Y428519D01*
X313548Y428433D01*
X313479Y428349D01*
X313406Y428267D01*
X313331Y428188D01*
X313253Y428112D01*
X313172Y428039D01*
X313089Y427969D01*
X313003Y427902D01*
X312915Y427838D01*
X312824Y427778D01*
X312731Y427720D01*
X312637Y427666D01*
X312540Y427616D01*
X312442Y427569D01*
X312342Y427526D01*
X312240Y427486D01*
X312137Y427450D01*
X312033Y427418D01*
X311928Y427390D01*
X311822Y427365D01*
X311715Y427345D01*
X311607Y427328D01*
X311499Y427315D01*
X311391Y427306D01*
X311282Y427301D01*
X311173Y427300D01*
X311064Y427303D01*
X310955Y427310D01*
X310847Y427321D01*
X310739Y427336D01*
X310631Y427354D01*
X310525Y427377D01*
X310419Y427403D01*
X310314Y427434D01*
X310211Y427468D01*
X310109Y427505D01*
X310008Y427547D01*
X309909Y427592D01*
X309811Y427641D01*
X309716Y427693D01*
X309622Y427749D01*
X309530Y427807D01*
X309441Y427870D01*
X309354Y427935D01*
X309269Y428004D01*
X309187Y428075D01*
X309108Y428150D01*
X309031Y428227D01*
X308957Y428307D01*
X308886Y428390D01*
X308819Y428476D01*
X308754Y428563D01*
X308692Y428653D01*
X308634Y428745D01*
X308580Y428839D01*
X308528Y428936D01*
X308480Y429034D01*
X308436Y429133D01*
X308396Y429234D01*
X308359Y429337D01*
X308326Y429441D01*
X308296Y429545D01*
X308271Y429651D01*
X308249Y429758D01*
X308232Y429866D01*
X308218Y429974D01*
X308208Y430082D01*
X308202Y430191D01*
X308200Y430300D01*
D12*
X282784Y515663D02*
X282784Y522267D01*
X286453Y515663D01*
X286453Y522267D01*
X289399Y520433D02*
X289399Y517498D01*
X289399Y520433D02*
X289401Y520518D01*
X289407Y520602D01*
X289417Y520686D01*
X289430Y520770D01*
X289448Y520853D01*
X289469Y520935D01*
X289494Y521016D01*
X289523Y521096D01*
X289555Y521174D01*
X289591Y521250D01*
X289631Y521325D01*
X289674Y521398D01*
X289720Y521469D01*
X289769Y521538D01*
X289822Y521605D01*
X289878Y521669D01*
X289936Y521730D01*
X289997Y521788D01*
X290061Y521844D01*
X290128Y521897D01*
X290197Y521946D01*
X290268Y521992D01*
X290341Y522035D01*
X290416Y522075D01*
X290492Y522111D01*
X290570Y522143D01*
X290650Y522172D01*
X290731Y522197D01*
X290813Y522218D01*
X290896Y522236D01*
X290980Y522249D01*
X291064Y522259D01*
X291148Y522265D01*
X291233Y522267D01*
X291318Y522265D01*
X291402Y522259D01*
X291486Y522249D01*
X291570Y522236D01*
X291653Y522218D01*
X291735Y522197D01*
X291816Y522172D01*
X291896Y522143D01*
X291974Y522111D01*
X292050Y522075D01*
X292125Y522035D01*
X292198Y521992D01*
X292269Y521946D01*
X292338Y521897D01*
X292405Y521844D01*
X292469Y521788D01*
X292530Y521730D01*
X292588Y521669D01*
X292644Y521605D01*
X292697Y521538D01*
X292746Y521469D01*
X292792Y521398D01*
X292835Y521325D01*
X292875Y521250D01*
X292911Y521174D01*
X292943Y521096D01*
X292972Y521016D01*
X292997Y520935D01*
X293018Y520853D01*
X293036Y520770D01*
X293049Y520686D01*
X293059Y520602D01*
X293065Y520518D01*
X293067Y520433D01*
X293067Y517498D01*
X293065Y517413D01*
X293059Y517329D01*
X293049Y517245D01*
X293036Y517161D01*
X293018Y517078D01*
X292997Y516996D01*
X292972Y516915D01*
X292943Y516835D01*
X292911Y516757D01*
X292875Y516681D01*
X292835Y516606D01*
X292792Y516533D01*
X292746Y516462D01*
X292697Y516393D01*
X292644Y516326D01*
X292588Y516262D01*
X292530Y516201D01*
X292469Y516143D01*
X292405Y516087D01*
X292338Y516034D01*
X292269Y515985D01*
X292198Y515939D01*
X292125Y515896D01*
X292050Y515856D01*
X291974Y515820D01*
X291896Y515788D01*
X291816Y515759D01*
X291735Y515734D01*
X291653Y515713D01*
X291570Y515695D01*
X291486Y515682D01*
X291402Y515672D01*
X291318Y515666D01*
X291233Y515664D01*
X291148Y515666D01*
X291064Y515672D01*
X290980Y515682D01*
X290896Y515695D01*
X290813Y515713D01*
X290731Y515734D01*
X290650Y515759D01*
X290570Y515788D01*
X290492Y515820D01*
X290416Y515856D01*
X290341Y515896D01*
X290268Y515939D01*
X290197Y515985D01*
X290128Y516034D01*
X290061Y516087D01*
X289997Y516143D01*
X289936Y516201D01*
X289878Y516262D01*
X289822Y516326D01*
X289769Y516393D01*
X289720Y516462D01*
X289674Y516533D01*
X289631Y516606D01*
X289591Y516681D01*
X289555Y516757D01*
X289523Y516835D01*
X289494Y516915D01*
X289469Y516996D01*
X289448Y517078D01*
X289430Y517161D01*
X289417Y517245D01*
X289407Y517329D01*
X289401Y517413D01*
X289399Y517498D01*
X296354Y515663D02*
X296354Y522267D01*
X295620Y515663D02*
X297087Y515663D01*
X297087Y522267D02*
X295620Y522267D01*
X299943Y522267D02*
X299943Y515663D01*
X299943Y522267D02*
X301777Y522267D01*
X301862Y522265D01*
X301946Y522259D01*
X302030Y522249D01*
X302114Y522236D01*
X302197Y522218D01*
X302279Y522197D01*
X302360Y522172D01*
X302440Y522143D01*
X302518Y522111D01*
X302594Y522075D01*
X302669Y522035D01*
X302742Y521992D01*
X302813Y521946D01*
X302882Y521897D01*
X302949Y521844D01*
X303013Y521788D01*
X303074Y521730D01*
X303132Y521669D01*
X303188Y521605D01*
X303241Y521538D01*
X303290Y521469D01*
X303336Y521398D01*
X303379Y521325D01*
X303419Y521250D01*
X303455Y521174D01*
X303487Y521096D01*
X303516Y521016D01*
X303541Y520935D01*
X303562Y520853D01*
X303580Y520770D01*
X303593Y520686D01*
X303603Y520602D01*
X303609Y520518D01*
X303611Y520433D01*
X303609Y520348D01*
X303603Y520264D01*
X303593Y520180D01*
X303580Y520096D01*
X303562Y520013D01*
X303541Y519931D01*
X303516Y519850D01*
X303487Y519770D01*
X303455Y519692D01*
X303419Y519616D01*
X303379Y519541D01*
X303336Y519468D01*
X303290Y519397D01*
X303241Y519328D01*
X303188Y519261D01*
X303132Y519197D01*
X303074Y519136D01*
X303013Y519078D01*
X302949Y519022D01*
X302882Y518969D01*
X302813Y518920D01*
X302742Y518874D01*
X302669Y518831D01*
X302594Y518791D01*
X302518Y518755D01*
X302440Y518723D01*
X302360Y518694D01*
X302279Y518669D01*
X302197Y518648D01*
X302114Y518630D01*
X302030Y518617D01*
X301946Y518607D01*
X301862Y518601D01*
X301777Y518599D01*
X299943Y518599D01*
X306041Y520800D02*
X307875Y522267D01*
X307875Y515663D01*
X306041Y515663D02*
X309709Y515663D01*
X314429Y515663D02*
X314503Y515665D01*
X314577Y515671D01*
X314651Y515680D01*
X314724Y515693D01*
X314797Y515710D01*
X314868Y515730D01*
X314939Y515754D01*
X315008Y515782D01*
X315075Y515813D01*
X315141Y515847D01*
X315206Y515885D01*
X315268Y515926D01*
X315328Y515970D01*
X315385Y516017D01*
X315440Y516067D01*
X315493Y516120D01*
X315543Y516175D01*
X315590Y516232D01*
X315634Y516292D01*
X315675Y516354D01*
X315713Y516419D01*
X315747Y516484D01*
X315778Y516552D01*
X315806Y516621D01*
X315830Y516692D01*
X315850Y516763D01*
X315867Y516835D01*
X315880Y516909D01*
X315889Y516982D01*
X315895Y517057D01*
X315897Y517131D01*
X314429Y515664D02*
X314318Y515666D01*
X314207Y515672D01*
X314096Y515682D01*
X313985Y515696D01*
X313876Y515714D01*
X313767Y515736D01*
X313658Y515761D01*
X313551Y515791D01*
X313445Y515824D01*
X313340Y515862D01*
X313237Y515902D01*
X313135Y515947D01*
X313035Y515995D01*
X312936Y516047D01*
X312840Y516102D01*
X312745Y516161D01*
X312653Y516223D01*
X312563Y516289D01*
X312475Y516357D01*
X312390Y516429D01*
X312308Y516504D01*
X312228Y516581D01*
X312411Y520800D02*
X312413Y520874D01*
X312419Y520949D01*
X312428Y521022D01*
X312441Y521096D01*
X312458Y521168D01*
X312478Y521239D01*
X312502Y521310D01*
X312530Y521379D01*
X312561Y521446D01*
X312595Y521512D01*
X312633Y521577D01*
X312674Y521639D01*
X312718Y521699D01*
X312765Y521756D01*
X312815Y521811D01*
X312868Y521864D01*
X312923Y521914D01*
X312980Y521961D01*
X313040Y522005D01*
X313102Y522046D01*
X313167Y522084D01*
X313233Y522118D01*
X313300Y522149D01*
X313369Y522177D01*
X313440Y522201D01*
X313511Y522221D01*
X313583Y522238D01*
X313657Y522251D01*
X313730Y522260D01*
X313805Y522266D01*
X313879Y522268D01*
X313983Y522266D01*
X314087Y522260D01*
X314191Y522250D01*
X314294Y522237D01*
X314397Y522219D01*
X314499Y522197D01*
X314600Y522172D01*
X314700Y522143D01*
X314799Y522110D01*
X314896Y522073D01*
X314992Y522033D01*
X315087Y521989D01*
X315179Y521941D01*
X315270Y521891D01*
X315359Y521836D01*
X315446Y521779D01*
X315530Y521718D01*
X313145Y519515D02*
X313082Y519554D01*
X313022Y519596D01*
X312964Y519641D01*
X312907Y519689D01*
X312854Y519740D01*
X312803Y519793D01*
X312754Y519848D01*
X312709Y519906D01*
X312666Y519966D01*
X312626Y520028D01*
X312590Y520092D01*
X312556Y520158D01*
X312526Y520226D01*
X312499Y520294D01*
X312476Y520364D01*
X312456Y520435D01*
X312440Y520507D01*
X312427Y520580D01*
X312418Y520653D01*
X312413Y520726D01*
X312411Y520800D01*
X315163Y518416D02*
X315226Y518377D01*
X315286Y518335D01*
X315345Y518290D01*
X315401Y518242D01*
X315454Y518191D01*
X315505Y518138D01*
X315554Y518083D01*
X315599Y518025D01*
X315642Y517965D01*
X315682Y517903D01*
X315718Y517839D01*
X315752Y517773D01*
X315782Y517705D01*
X315809Y517637D01*
X315832Y517567D01*
X315852Y517496D01*
X315868Y517424D01*
X315881Y517351D01*
X315890Y517278D01*
X315895Y517205D01*
X315897Y517131D01*
X315163Y518415D02*
X313145Y519516D01*
X318629Y522267D02*
X318629Y515663D01*
X322298Y515663D02*
X318629Y522267D01*
X322298Y522267D02*
X322298Y515663D01*
X325243Y520800D02*
X327077Y522267D01*
X327077Y515663D01*
X325243Y515663D02*
X328912Y515663D01*
X331644Y515663D02*
X333478Y515663D01*
X333478Y515664D02*
X333563Y515666D01*
X333647Y515672D01*
X333731Y515682D01*
X333815Y515695D01*
X333898Y515713D01*
X333980Y515734D01*
X334061Y515759D01*
X334141Y515788D01*
X334219Y515820D01*
X334295Y515856D01*
X334370Y515896D01*
X334443Y515939D01*
X334514Y515985D01*
X334583Y516034D01*
X334650Y516087D01*
X334714Y516143D01*
X334775Y516201D01*
X334833Y516262D01*
X334889Y516326D01*
X334942Y516393D01*
X334991Y516462D01*
X335037Y516533D01*
X335080Y516606D01*
X335120Y516681D01*
X335156Y516757D01*
X335188Y516835D01*
X335217Y516915D01*
X335242Y516996D01*
X335263Y517078D01*
X335281Y517161D01*
X335294Y517245D01*
X335304Y517329D01*
X335310Y517413D01*
X335312Y517498D01*
X335310Y517583D01*
X335304Y517667D01*
X335294Y517751D01*
X335281Y517835D01*
X335263Y517918D01*
X335242Y518000D01*
X335217Y518081D01*
X335188Y518161D01*
X335156Y518239D01*
X335120Y518315D01*
X335080Y518390D01*
X335037Y518463D01*
X334991Y518534D01*
X334942Y518603D01*
X334889Y518670D01*
X334833Y518734D01*
X334775Y518795D01*
X334714Y518853D01*
X334650Y518909D01*
X334583Y518962D01*
X334514Y519011D01*
X334443Y519057D01*
X334370Y519100D01*
X334295Y519140D01*
X334219Y519176D01*
X334141Y519208D01*
X334061Y519237D01*
X333980Y519262D01*
X333898Y519283D01*
X333815Y519301D01*
X333731Y519314D01*
X333647Y519324D01*
X333563Y519330D01*
X333478Y519332D01*
X333845Y522267D02*
X331644Y522267D01*
X333845Y522268D02*
X333921Y522266D01*
X333996Y522260D01*
X334071Y522251D01*
X334145Y522237D01*
X334219Y522220D01*
X334291Y522198D01*
X334363Y522174D01*
X334433Y522145D01*
X334501Y522113D01*
X334568Y522078D01*
X334633Y522039D01*
X334696Y521996D01*
X334756Y521951D01*
X334814Y521903D01*
X334870Y521851D01*
X334922Y521797D01*
X334972Y521740D01*
X335019Y521681D01*
X335063Y521620D01*
X335104Y521556D01*
X335141Y521490D01*
X335175Y521422D01*
X335205Y521353D01*
X335232Y521282D01*
X335255Y521210D01*
X335274Y521137D01*
X335289Y521063D01*
X335301Y520988D01*
X335309Y520913D01*
X335313Y520838D01*
X335313Y520762D01*
X335309Y520687D01*
X335301Y520612D01*
X335289Y520537D01*
X335274Y520463D01*
X335255Y520390D01*
X335232Y520318D01*
X335205Y520247D01*
X335175Y520178D01*
X335141Y520110D01*
X335104Y520044D01*
X335063Y519980D01*
X335019Y519919D01*
X334972Y519860D01*
X334922Y519803D01*
X334870Y519749D01*
X334814Y519697D01*
X334756Y519649D01*
X334696Y519604D01*
X334633Y519561D01*
X334568Y519522D01*
X334501Y519487D01*
X334433Y519455D01*
X334363Y519426D01*
X334291Y519402D01*
X334219Y519380D01*
X334145Y519363D01*
X334071Y519349D01*
X333996Y519340D01*
X333921Y519334D01*
X333845Y519332D01*
X332377Y519332D01*
X338045Y518965D02*
X338047Y519110D01*
X338053Y519255D01*
X338062Y519400D01*
X338076Y519545D01*
X338093Y519689D01*
X338115Y519832D01*
X338140Y519976D01*
X338169Y520118D01*
X338201Y520259D01*
X338238Y520400D01*
X338278Y520539D01*
X338322Y520678D01*
X338369Y520815D01*
X338420Y520951D01*
X338475Y521085D01*
X338533Y521218D01*
X338595Y521350D01*
X338594Y521350D02*
X338620Y521419D01*
X338649Y521486D01*
X338682Y521552D01*
X338718Y521615D01*
X338758Y521677D01*
X338801Y521736D01*
X338847Y521793D01*
X338896Y521847D01*
X338948Y521899D01*
X339003Y521948D01*
X339060Y521993D01*
X339120Y522036D01*
X339182Y522075D01*
X339245Y522111D01*
X339311Y522144D01*
X339378Y522172D01*
X339447Y522198D01*
X339517Y522219D01*
X339588Y522237D01*
X339660Y522250D01*
X339733Y522260D01*
X339806Y522266D01*
X339879Y522268D01*
X339879Y522267D02*
X339952Y522265D01*
X340025Y522259D01*
X340098Y522249D01*
X340170Y522236D01*
X340241Y522218D01*
X340311Y522197D01*
X340379Y522171D01*
X340447Y522143D01*
X340512Y522110D01*
X340576Y522074D01*
X340638Y522035D01*
X340697Y521993D01*
X340754Y521947D01*
X340809Y521898D01*
X340861Y521847D01*
X340910Y521792D01*
X340956Y521735D01*
X340999Y521676D01*
X341039Y521615D01*
X341075Y521551D01*
X341108Y521486D01*
X341137Y521419D01*
X341163Y521350D01*
X341225Y521218D01*
X341283Y521085D01*
X341338Y520951D01*
X341389Y520815D01*
X341436Y520678D01*
X341480Y520539D01*
X341520Y520400D01*
X341557Y520259D01*
X341589Y520118D01*
X341618Y519976D01*
X341643Y519833D01*
X341665Y519689D01*
X341682Y519545D01*
X341696Y519400D01*
X341705Y519255D01*
X341711Y519110D01*
X341713Y518965D01*
X338045Y518965D02*
X338047Y518820D01*
X338053Y518675D01*
X338062Y518530D01*
X338076Y518385D01*
X338093Y518241D01*
X338115Y518098D01*
X338140Y517955D01*
X338168Y517812D01*
X338201Y517671D01*
X338238Y517530D01*
X338278Y517391D01*
X338322Y517252D01*
X338369Y517115D01*
X338420Y516979D01*
X338475Y516845D01*
X338533Y516712D01*
X338595Y516580D01*
X338594Y516581D02*
X338620Y516512D01*
X338649Y516445D01*
X338682Y516379D01*
X338718Y516316D01*
X338758Y516254D01*
X338801Y516195D01*
X338847Y516138D01*
X338896Y516084D01*
X338948Y516032D01*
X339003Y515983D01*
X339060Y515938D01*
X339120Y515895D01*
X339182Y515856D01*
X339245Y515820D01*
X339311Y515787D01*
X339378Y515759D01*
X339447Y515733D01*
X339517Y515712D01*
X339588Y515694D01*
X339660Y515681D01*
X339733Y515671D01*
X339806Y515665D01*
X339879Y515663D01*
X341163Y516580D02*
X341225Y516712D01*
X341283Y516845D01*
X341338Y516979D01*
X341389Y517115D01*
X341436Y517252D01*
X341480Y517391D01*
X341520Y517530D01*
X341557Y517671D01*
X341589Y517812D01*
X341618Y517954D01*
X341643Y518097D01*
X341665Y518241D01*
X341682Y518385D01*
X341696Y518530D01*
X341705Y518675D01*
X341711Y518820D01*
X341713Y518965D01*
X341163Y516581D02*
X341137Y516512D01*
X341108Y516445D01*
X341075Y516380D01*
X341039Y516316D01*
X340999Y516255D01*
X340956Y516196D01*
X340910Y516139D01*
X340861Y516084D01*
X340809Y516033D01*
X340754Y515984D01*
X340697Y515938D01*
X340638Y515896D01*
X340576Y515857D01*
X340512Y515821D01*
X340447Y515788D01*
X340379Y515760D01*
X340311Y515734D01*
X340241Y515713D01*
X340169Y515695D01*
X340098Y515682D01*
X340025Y515672D01*
X339952Y515666D01*
X339879Y515664D01*
X338411Y517131D02*
X341346Y520800D01*
X344445Y518965D02*
X344447Y519110D01*
X344453Y519255D01*
X344462Y519400D01*
X344476Y519545D01*
X344493Y519689D01*
X344515Y519832D01*
X344540Y519976D01*
X344569Y520118D01*
X344601Y520259D01*
X344638Y520400D01*
X344678Y520539D01*
X344722Y520678D01*
X344769Y520815D01*
X344820Y520951D01*
X344875Y521085D01*
X344933Y521218D01*
X344995Y521350D01*
X345021Y521419D01*
X345050Y521486D01*
X345083Y521552D01*
X345119Y521615D01*
X345159Y521677D01*
X345202Y521736D01*
X345248Y521793D01*
X345297Y521847D01*
X345349Y521899D01*
X345404Y521948D01*
X345461Y521993D01*
X345521Y522036D01*
X345583Y522075D01*
X345646Y522111D01*
X345712Y522144D01*
X345779Y522172D01*
X345848Y522198D01*
X345918Y522219D01*
X345989Y522237D01*
X346061Y522250D01*
X346134Y522260D01*
X346207Y522266D01*
X346280Y522268D01*
X346280Y522267D02*
X346353Y522265D01*
X346426Y522259D01*
X346499Y522249D01*
X346571Y522236D01*
X346642Y522218D01*
X346712Y522197D01*
X346780Y522171D01*
X346848Y522143D01*
X346913Y522110D01*
X346977Y522074D01*
X347039Y522035D01*
X347098Y521993D01*
X347155Y521947D01*
X347210Y521898D01*
X347262Y521847D01*
X347311Y521792D01*
X347357Y521735D01*
X347400Y521676D01*
X347440Y521615D01*
X347476Y521551D01*
X347509Y521486D01*
X347538Y521419D01*
X347564Y521350D01*
X347626Y521218D01*
X347684Y521085D01*
X347739Y520951D01*
X347790Y520815D01*
X347837Y520678D01*
X347881Y520539D01*
X347921Y520400D01*
X347958Y520259D01*
X347990Y520118D01*
X348019Y519976D01*
X348044Y519833D01*
X348066Y519689D01*
X348083Y519545D01*
X348097Y519400D01*
X348106Y519255D01*
X348112Y519110D01*
X348114Y518965D01*
X344446Y518965D02*
X344448Y518820D01*
X344454Y518675D01*
X344463Y518530D01*
X344477Y518385D01*
X344494Y518241D01*
X344516Y518098D01*
X344541Y517955D01*
X344569Y517812D01*
X344602Y517671D01*
X344639Y517530D01*
X344679Y517391D01*
X344723Y517252D01*
X344770Y517115D01*
X344821Y516979D01*
X344876Y516845D01*
X344934Y516712D01*
X344996Y516580D01*
X344995Y516581D02*
X345021Y516512D01*
X345050Y516445D01*
X345083Y516379D01*
X345119Y516316D01*
X345159Y516254D01*
X345202Y516195D01*
X345248Y516138D01*
X345297Y516084D01*
X345349Y516032D01*
X345404Y515983D01*
X345461Y515938D01*
X345521Y515895D01*
X345583Y515856D01*
X345646Y515820D01*
X345712Y515787D01*
X345779Y515759D01*
X345848Y515733D01*
X345918Y515712D01*
X345989Y515694D01*
X346061Y515681D01*
X346134Y515671D01*
X346207Y515665D01*
X346280Y515663D01*
X347564Y516580D02*
X347626Y516712D01*
X347684Y516845D01*
X347739Y516979D01*
X347790Y517115D01*
X347837Y517252D01*
X347881Y517391D01*
X347921Y517530D01*
X347958Y517671D01*
X347990Y517812D01*
X348019Y517954D01*
X348044Y518097D01*
X348066Y518241D01*
X348083Y518385D01*
X348097Y518530D01*
X348106Y518675D01*
X348112Y518820D01*
X348114Y518965D01*
X347564Y516581D02*
X347538Y516512D01*
X347509Y516445D01*
X347476Y516380D01*
X347440Y516316D01*
X347400Y516255D01*
X347357Y516196D01*
X347311Y516139D01*
X347262Y516084D01*
X347210Y516033D01*
X347155Y515984D01*
X347098Y515938D01*
X347039Y515896D01*
X346977Y515857D01*
X346913Y515821D01*
X346848Y515788D01*
X346780Y515760D01*
X346712Y515734D01*
X346642Y515713D01*
X346570Y515695D01*
X346499Y515682D01*
X346426Y515672D01*
X346353Y515666D01*
X346280Y515664D01*
X344812Y517131D02*
X347747Y520800D01*
X352680Y522267D02*
X350479Y515663D01*
X354882Y515663D02*
X352680Y522267D01*
X354331Y517314D02*
X351029Y517314D01*
D13*
X147114Y211506D02*
X145477Y211506D01*
X145399Y211508D01*
X145321Y211513D01*
X145244Y211523D01*
X145167Y211536D01*
X145091Y211552D01*
X145016Y211572D01*
X144942Y211596D01*
X144869Y211623D01*
X144797Y211654D01*
X144727Y211688D01*
X144659Y211725D01*
X144592Y211766D01*
X144527Y211810D01*
X144465Y211856D01*
X144405Y211906D01*
X144347Y211958D01*
X144292Y212013D01*
X144240Y212071D01*
X144190Y212131D01*
X144144Y212193D01*
X144100Y212258D01*
X144059Y212325D01*
X144022Y212393D01*
X143988Y212463D01*
X143957Y212535D01*
X143930Y212608D01*
X143906Y212682D01*
X143886Y212757D01*
X143870Y212833D01*
X143857Y212910D01*
X143847Y212987D01*
X143842Y213065D01*
X143840Y213143D01*
X143840Y217235D01*
X143842Y217315D01*
X143848Y217395D01*
X143858Y217475D01*
X143871Y217554D01*
X143889Y217633D01*
X143910Y217710D01*
X143936Y217786D01*
X143965Y217861D01*
X143997Y217935D01*
X144033Y218007D01*
X144073Y218077D01*
X144116Y218144D01*
X144162Y218210D01*
X144212Y218273D01*
X144264Y218334D01*
X144319Y218393D01*
X144378Y218448D01*
X144438Y218500D01*
X144502Y218550D01*
X144568Y218596D01*
X144635Y218639D01*
X144705Y218679D01*
X144777Y218715D01*
X144851Y218747D01*
X144925Y218776D01*
X145002Y218802D01*
X145079Y218823D01*
X145158Y218841D01*
X145237Y218854D01*
X145317Y218864D01*
X145397Y218870D01*
X145477Y218872D01*
X147114Y218872D01*
X149959Y211506D02*
X152005Y211506D01*
X152094Y211508D01*
X152183Y211514D01*
X152272Y211524D01*
X152360Y211537D01*
X152448Y211554D01*
X152535Y211576D01*
X152620Y211601D01*
X152705Y211629D01*
X152788Y211662D01*
X152870Y211698D01*
X152950Y211737D01*
X153028Y211780D01*
X153104Y211826D01*
X153179Y211876D01*
X153251Y211929D01*
X153320Y211985D01*
X153387Y212044D01*
X153452Y212105D01*
X153513Y212170D01*
X153572Y212237D01*
X153628Y212306D01*
X153681Y212378D01*
X153731Y212453D01*
X153777Y212529D01*
X153820Y212607D01*
X153859Y212687D01*
X153895Y212769D01*
X153928Y212852D01*
X153956Y212937D01*
X153981Y213022D01*
X154003Y213109D01*
X154020Y213197D01*
X154033Y213285D01*
X154043Y213374D01*
X154049Y213463D01*
X154051Y213552D01*
X154049Y213641D01*
X154043Y213730D01*
X154033Y213819D01*
X154020Y213907D01*
X154003Y213995D01*
X153981Y214082D01*
X153956Y214167D01*
X153928Y214252D01*
X153895Y214335D01*
X153859Y214417D01*
X153820Y214497D01*
X153777Y214575D01*
X153731Y214651D01*
X153681Y214726D01*
X153628Y214798D01*
X153572Y214867D01*
X153513Y214934D01*
X153452Y214999D01*
X153387Y215060D01*
X153320Y215119D01*
X153251Y215175D01*
X153179Y215228D01*
X153104Y215278D01*
X153028Y215324D01*
X152950Y215367D01*
X152870Y215406D01*
X152788Y215442D01*
X152705Y215475D01*
X152620Y215503D01*
X152535Y215528D01*
X152448Y215550D01*
X152360Y215567D01*
X152272Y215580D01*
X152183Y215590D01*
X152094Y215596D01*
X152005Y215598D01*
X152415Y218872D02*
X149959Y218872D01*
X152415Y218872D02*
X152494Y218870D01*
X152573Y218864D01*
X152652Y218855D01*
X152730Y218842D01*
X152807Y218824D01*
X152883Y218804D01*
X152958Y218779D01*
X153032Y218751D01*
X153105Y218720D01*
X153176Y218684D01*
X153245Y218646D01*
X153312Y218604D01*
X153377Y218559D01*
X153440Y218511D01*
X153501Y218460D01*
X153558Y218406D01*
X153614Y218350D01*
X153666Y218291D01*
X153716Y218229D01*
X153762Y218165D01*
X153806Y218099D01*
X153846Y218031D01*
X153882Y217961D01*
X153916Y217889D01*
X153946Y217815D01*
X153972Y217741D01*
X153995Y217665D01*
X154013Y217588D01*
X154029Y217511D01*
X154040Y217432D01*
X154048Y217354D01*
X154052Y217275D01*
X154052Y217195D01*
X154048Y217116D01*
X154040Y217038D01*
X154029Y216959D01*
X154013Y216882D01*
X153995Y216805D01*
X153972Y216729D01*
X153946Y216655D01*
X153916Y216581D01*
X153882Y216509D01*
X153846Y216439D01*
X153806Y216371D01*
X153762Y216305D01*
X153716Y216241D01*
X153666Y216179D01*
X153614Y216120D01*
X153558Y216064D01*
X153501Y216010D01*
X153440Y215959D01*
X153377Y215911D01*
X153312Y215866D01*
X153245Y215824D01*
X153176Y215786D01*
X153105Y215750D01*
X153032Y215719D01*
X152958Y215691D01*
X152883Y215666D01*
X152807Y215646D01*
X152730Y215628D01*
X152652Y215615D01*
X152573Y215606D01*
X152494Y215600D01*
X152415Y215598D01*
X150778Y215598D01*
X158911Y214780D02*
X161367Y214780D01*
X158911Y214779D02*
X158833Y214781D01*
X158755Y214786D01*
X158678Y214796D01*
X158601Y214809D01*
X158525Y214825D01*
X158450Y214845D01*
X158376Y214869D01*
X158303Y214896D01*
X158231Y214927D01*
X158161Y214961D01*
X158092Y214998D01*
X158026Y215039D01*
X157961Y215083D01*
X157899Y215129D01*
X157839Y215179D01*
X157781Y215231D01*
X157726Y215286D01*
X157674Y215344D01*
X157624Y215404D01*
X157578Y215466D01*
X157534Y215531D01*
X157493Y215598D01*
X157456Y215666D01*
X157422Y215736D01*
X157391Y215808D01*
X157364Y215881D01*
X157340Y215955D01*
X157320Y216030D01*
X157304Y216106D01*
X157291Y216183D01*
X157281Y216260D01*
X157276Y216338D01*
X157274Y216416D01*
X157274Y216417D02*
X157274Y216826D01*
X157275Y216826D02*
X157277Y216915D01*
X157283Y217004D01*
X157293Y217093D01*
X157306Y217181D01*
X157323Y217269D01*
X157345Y217356D01*
X157370Y217441D01*
X157398Y217526D01*
X157431Y217609D01*
X157467Y217691D01*
X157506Y217771D01*
X157549Y217849D01*
X157595Y217925D01*
X157645Y218000D01*
X157698Y218072D01*
X157754Y218141D01*
X157813Y218208D01*
X157874Y218273D01*
X157939Y218334D01*
X158006Y218393D01*
X158075Y218449D01*
X158147Y218502D01*
X158222Y218552D01*
X158298Y218598D01*
X158376Y218641D01*
X158456Y218680D01*
X158538Y218716D01*
X158621Y218749D01*
X158706Y218777D01*
X158791Y218802D01*
X158878Y218824D01*
X158966Y218841D01*
X159054Y218854D01*
X159143Y218864D01*
X159232Y218870D01*
X159321Y218872D01*
X159410Y218870D01*
X159499Y218864D01*
X159588Y218854D01*
X159676Y218841D01*
X159764Y218824D01*
X159851Y218802D01*
X159936Y218777D01*
X160021Y218749D01*
X160104Y218716D01*
X160186Y218680D01*
X160266Y218641D01*
X160344Y218598D01*
X160420Y218552D01*
X160495Y218502D01*
X160567Y218449D01*
X160636Y218393D01*
X160703Y218334D01*
X160768Y218273D01*
X160829Y218208D01*
X160888Y218141D01*
X160944Y218072D01*
X160997Y218000D01*
X161047Y217925D01*
X161093Y217849D01*
X161136Y217771D01*
X161175Y217691D01*
X161211Y217609D01*
X161244Y217526D01*
X161272Y217441D01*
X161297Y217356D01*
X161319Y217269D01*
X161336Y217181D01*
X161349Y217093D01*
X161359Y217004D01*
X161365Y216915D01*
X161367Y216826D01*
X161367Y214780D01*
X161365Y214668D01*
X161359Y214557D01*
X161350Y214445D01*
X161337Y214334D01*
X161319Y214224D01*
X161299Y214114D01*
X161274Y214005D01*
X161246Y213897D01*
X161214Y213790D01*
X161178Y213684D01*
X161139Y213579D01*
X161096Y213476D01*
X161050Y213374D01*
X161000Y213274D01*
X160947Y213175D01*
X160890Y213079D01*
X160831Y212984D01*
X160768Y212892D01*
X160702Y212802D01*
X160633Y212714D01*
X160561Y212628D01*
X160486Y212545D01*
X160408Y212465D01*
X160328Y212387D01*
X160245Y212312D01*
X160159Y212240D01*
X160071Y212171D01*
X159981Y212105D01*
X159889Y212042D01*
X159794Y211983D01*
X159698Y211926D01*
X159599Y211873D01*
X159499Y211823D01*
X159397Y211777D01*
X159294Y211734D01*
X159189Y211695D01*
X159083Y211659D01*
X158976Y211627D01*
X158868Y211599D01*
X158759Y211574D01*
X158649Y211554D01*
X158539Y211536D01*
X158428Y211523D01*
X158316Y211514D01*
X158205Y211508D01*
X158093Y211506D01*
X166762Y211353D02*
X168399Y211353D01*
X166762Y211353D02*
X166684Y211355D01*
X166606Y211360D01*
X166529Y211370D01*
X166452Y211383D01*
X166376Y211399D01*
X166301Y211419D01*
X166227Y211443D01*
X166154Y211470D01*
X166082Y211501D01*
X166012Y211535D01*
X165944Y211572D01*
X165877Y211613D01*
X165812Y211657D01*
X165750Y211703D01*
X165690Y211753D01*
X165632Y211805D01*
X165577Y211860D01*
X165525Y211918D01*
X165475Y211978D01*
X165429Y212040D01*
X165385Y212105D01*
X165344Y212172D01*
X165307Y212240D01*
X165273Y212310D01*
X165242Y212382D01*
X165215Y212455D01*
X165191Y212529D01*
X165171Y212604D01*
X165155Y212680D01*
X165142Y212757D01*
X165132Y212834D01*
X165127Y212912D01*
X165125Y212990D01*
X165125Y217083D01*
X165127Y217163D01*
X165133Y217243D01*
X165143Y217323D01*
X165156Y217402D01*
X165174Y217481D01*
X165195Y217558D01*
X165221Y217634D01*
X165250Y217709D01*
X165282Y217783D01*
X165318Y217855D01*
X165358Y217925D01*
X165401Y217992D01*
X165447Y218058D01*
X165497Y218121D01*
X165549Y218182D01*
X165604Y218241D01*
X165663Y218296D01*
X165723Y218348D01*
X165787Y218398D01*
X165853Y218444D01*
X165920Y218487D01*
X165990Y218527D01*
X166062Y218563D01*
X166136Y218595D01*
X166210Y218624D01*
X166287Y218650D01*
X166364Y218671D01*
X166443Y218689D01*
X166522Y218702D01*
X166602Y218712D01*
X166682Y218718D01*
X166762Y218720D01*
X166762Y218719D02*
X168399Y218719D01*
X172881Y218719D02*
X171245Y212990D01*
X175337Y212990D01*
X174109Y214627D02*
X174109Y211353D01*
X178560Y215036D02*
X178562Y215189D01*
X178568Y215342D01*
X178577Y215494D01*
X178591Y215647D01*
X178608Y215799D01*
X178629Y215950D01*
X178654Y216101D01*
X178683Y216251D01*
X178715Y216401D01*
X178752Y216549D01*
X178792Y216697D01*
X178835Y216844D01*
X178883Y216989D01*
X178934Y217133D01*
X178988Y217276D01*
X179047Y217418D01*
X179108Y217557D01*
X179174Y217696D01*
X179200Y217766D01*
X179230Y217836D01*
X179263Y217903D01*
X179299Y217969D01*
X179338Y218033D01*
X179381Y218095D01*
X179427Y218154D01*
X179475Y218212D01*
X179526Y218266D01*
X179580Y218319D01*
X179637Y218368D01*
X179696Y218415D01*
X179757Y218458D01*
X179820Y218499D01*
X179885Y218536D01*
X179952Y218571D01*
X180021Y218601D01*
X180091Y218629D01*
X180162Y218652D01*
X180234Y218673D01*
X180307Y218689D01*
X180381Y218702D01*
X180456Y218712D01*
X180531Y218717D01*
X180606Y218719D01*
X180681Y218717D01*
X180756Y218712D01*
X180831Y218702D01*
X180905Y218689D01*
X180978Y218673D01*
X181050Y218652D01*
X181121Y218629D01*
X181191Y218601D01*
X181260Y218571D01*
X181327Y218536D01*
X181392Y218499D01*
X181455Y218458D01*
X181516Y218415D01*
X181575Y218368D01*
X181632Y218319D01*
X181686Y218266D01*
X181737Y218212D01*
X181786Y218154D01*
X181831Y218095D01*
X181874Y218033D01*
X181913Y217969D01*
X181950Y217903D01*
X181982Y217835D01*
X182012Y217766D01*
X182038Y217696D01*
X182103Y217558D01*
X182165Y217418D01*
X182223Y217276D01*
X182278Y217133D01*
X182329Y216989D01*
X182377Y216844D01*
X182420Y216697D01*
X182460Y216550D01*
X182497Y216401D01*
X182529Y216251D01*
X182558Y216101D01*
X182583Y215950D01*
X182604Y215799D01*
X182621Y215647D01*
X182635Y215494D01*
X182644Y215342D01*
X182650Y215189D01*
X182652Y215036D01*
X178559Y215036D02*
X178561Y214883D01*
X178567Y214730D01*
X178576Y214577D01*
X178590Y214425D01*
X178607Y214273D01*
X178628Y214122D01*
X178653Y213971D01*
X178682Y213820D01*
X178714Y213671D01*
X178751Y213522D01*
X178791Y213375D01*
X178834Y213228D01*
X178882Y213083D01*
X178933Y212938D01*
X178988Y212796D01*
X179046Y212654D01*
X179108Y212514D01*
X179173Y212376D01*
X179174Y212377D02*
X179200Y212306D01*
X179230Y212237D01*
X179263Y212170D01*
X179299Y212104D01*
X179338Y212040D01*
X179381Y211978D01*
X179427Y211919D01*
X179475Y211861D01*
X179526Y211807D01*
X179580Y211754D01*
X179637Y211705D01*
X179696Y211658D01*
X179757Y211615D01*
X179820Y211574D01*
X179885Y211537D01*
X179952Y211502D01*
X180021Y211472D01*
X180091Y211444D01*
X180162Y211421D01*
X180234Y211400D01*
X180307Y211384D01*
X180381Y211371D01*
X180456Y211361D01*
X180531Y211356D01*
X180606Y211354D01*
X182038Y212376D02*
X182103Y212514D01*
X182165Y212654D01*
X182223Y212796D01*
X182278Y212939D01*
X182329Y213083D01*
X182377Y213228D01*
X182420Y213375D01*
X182460Y213523D01*
X182497Y213671D01*
X182529Y213821D01*
X182558Y213971D01*
X182583Y214122D01*
X182604Y214273D01*
X182621Y214425D01*
X182635Y214578D01*
X182644Y214730D01*
X182650Y214883D01*
X182652Y215036D01*
X182038Y212377D02*
X182012Y212307D01*
X181982Y212237D01*
X181950Y212170D01*
X181913Y212104D01*
X181874Y212040D01*
X181831Y211978D01*
X181785Y211919D01*
X181737Y211861D01*
X181686Y211807D01*
X181632Y211754D01*
X181575Y211705D01*
X181516Y211658D01*
X181455Y211615D01*
X181392Y211574D01*
X181327Y211537D01*
X181260Y211502D01*
X181191Y211472D01*
X181121Y211444D01*
X181050Y211421D01*
X180978Y211400D01*
X180905Y211384D01*
X180831Y211371D01*
X180756Y211361D01*
X180681Y211356D01*
X180606Y211354D01*
X178969Y212990D02*
X182243Y217083D01*
X145844Y287935D02*
X144207Y287935D01*
X144207Y287934D02*
X144129Y287936D01*
X144051Y287941D01*
X143974Y287951D01*
X143897Y287964D01*
X143821Y287980D01*
X143746Y288000D01*
X143672Y288024D01*
X143599Y288051D01*
X143527Y288082D01*
X143457Y288116D01*
X143389Y288153D01*
X143322Y288194D01*
X143257Y288238D01*
X143195Y288284D01*
X143135Y288334D01*
X143077Y288386D01*
X143022Y288441D01*
X142970Y288499D01*
X142920Y288559D01*
X142874Y288621D01*
X142830Y288686D01*
X142789Y288753D01*
X142752Y288821D01*
X142718Y288891D01*
X142687Y288963D01*
X142660Y289036D01*
X142636Y289110D01*
X142616Y289185D01*
X142600Y289261D01*
X142587Y289338D01*
X142577Y289415D01*
X142572Y289493D01*
X142570Y289571D01*
X142570Y293664D01*
X142572Y293744D01*
X142578Y293824D01*
X142588Y293904D01*
X142601Y293983D01*
X142619Y294062D01*
X142640Y294139D01*
X142666Y294215D01*
X142695Y294290D01*
X142727Y294364D01*
X142763Y294436D01*
X142803Y294506D01*
X142846Y294573D01*
X142892Y294639D01*
X142942Y294702D01*
X142994Y294763D01*
X143049Y294822D01*
X143108Y294877D01*
X143168Y294929D01*
X143232Y294979D01*
X143298Y295025D01*
X143365Y295068D01*
X143435Y295108D01*
X143507Y295144D01*
X143581Y295176D01*
X143655Y295205D01*
X143732Y295231D01*
X143809Y295252D01*
X143888Y295270D01*
X143967Y295283D01*
X144047Y295293D01*
X144127Y295299D01*
X144207Y295301D01*
X145844Y295301D01*
X150326Y295301D02*
X148689Y289571D01*
X152781Y289571D01*
X151554Y291208D02*
X151554Y287935D01*
X156004Y293664D02*
X158051Y295301D01*
X158051Y287935D01*
X160097Y287935D02*
X156004Y287935D01*
X167651Y288036D02*
X169288Y288036D01*
X167651Y288036D02*
X167573Y288038D01*
X167495Y288043D01*
X167418Y288053D01*
X167341Y288066D01*
X167265Y288082D01*
X167190Y288102D01*
X167116Y288126D01*
X167043Y288153D01*
X166971Y288184D01*
X166901Y288218D01*
X166833Y288255D01*
X166766Y288296D01*
X166701Y288340D01*
X166639Y288386D01*
X166579Y288436D01*
X166521Y288488D01*
X166466Y288543D01*
X166414Y288601D01*
X166364Y288661D01*
X166318Y288723D01*
X166274Y288788D01*
X166233Y288855D01*
X166196Y288923D01*
X166162Y288993D01*
X166131Y289065D01*
X166104Y289138D01*
X166080Y289212D01*
X166060Y289287D01*
X166044Y289363D01*
X166031Y289440D01*
X166021Y289517D01*
X166016Y289595D01*
X166014Y289673D01*
X166014Y293765D01*
X166016Y293845D01*
X166022Y293925D01*
X166032Y294005D01*
X166045Y294084D01*
X166063Y294163D01*
X166084Y294240D01*
X166110Y294316D01*
X166139Y294391D01*
X166171Y294465D01*
X166207Y294537D01*
X166247Y294607D01*
X166290Y294674D01*
X166336Y294740D01*
X166386Y294803D01*
X166438Y294864D01*
X166493Y294923D01*
X166552Y294978D01*
X166612Y295030D01*
X166676Y295080D01*
X166742Y295126D01*
X166809Y295169D01*
X166879Y295209D01*
X166951Y295245D01*
X167025Y295277D01*
X167099Y295306D01*
X167176Y295332D01*
X167253Y295353D01*
X167332Y295371D01*
X167411Y295384D01*
X167491Y295394D01*
X167571Y295400D01*
X167651Y295402D01*
X169288Y295402D01*
X173770Y295402D02*
X172133Y289673D01*
X176226Y289673D01*
X174998Y291310D02*
X174998Y288036D01*
X181699Y295403D02*
X181784Y295401D01*
X181869Y295395D01*
X181953Y295385D01*
X182037Y295372D01*
X182121Y295354D01*
X182203Y295333D01*
X182284Y295308D01*
X182364Y295279D01*
X182443Y295246D01*
X182520Y295210D01*
X182595Y295170D01*
X182669Y295127D01*
X182740Y295081D01*
X182809Y295031D01*
X182876Y294978D01*
X182940Y294922D01*
X183001Y294863D01*
X183060Y294802D01*
X183116Y294738D01*
X183169Y294671D01*
X183219Y294602D01*
X183265Y294531D01*
X183308Y294457D01*
X183348Y294382D01*
X183384Y294305D01*
X183417Y294226D01*
X183446Y294146D01*
X183471Y294065D01*
X183492Y293983D01*
X183510Y293899D01*
X183523Y293815D01*
X183533Y293731D01*
X183539Y293646D01*
X183541Y293561D01*
X181699Y295402D02*
X181603Y295400D01*
X181507Y295394D01*
X181412Y295384D01*
X181317Y295371D01*
X181222Y295353D01*
X181129Y295332D01*
X181036Y295307D01*
X180945Y295278D01*
X180854Y295246D01*
X180765Y295210D01*
X180678Y295170D01*
X180592Y295127D01*
X180508Y295081D01*
X180426Y295031D01*
X180346Y294977D01*
X180269Y294921D01*
X180194Y294861D01*
X180121Y294799D01*
X180051Y294733D01*
X179983Y294665D01*
X179918Y294594D01*
X179857Y294521D01*
X179798Y294445D01*
X179742Y294366D01*
X179690Y294286D01*
X179641Y294203D01*
X179595Y294119D01*
X179553Y294033D01*
X179515Y293945D01*
X179480Y293856D01*
X179448Y293765D01*
X182927Y292129D02*
X182987Y292188D01*
X183044Y292250D01*
X183099Y292314D01*
X183150Y292381D01*
X183199Y292450D01*
X183245Y292520D01*
X183288Y292593D01*
X183328Y292667D01*
X183364Y292743D01*
X183397Y292821D01*
X183427Y292900D01*
X183454Y292980D01*
X183477Y293061D01*
X183496Y293143D01*
X183512Y293225D01*
X183525Y293309D01*
X183534Y293393D01*
X183539Y293477D01*
X183541Y293561D01*
X182927Y292128D02*
X179449Y288036D01*
X183541Y288036D01*
M02*
