G04 EAGLE Gerber X2 export*
G75*
%MOMM*%
%FSLAX34Y34*%
%LPD*%
%AMOC8*
5,1,8,0,0,1.08239X$1,22.5*%
G01*
%ADD10C,2.903200*%
%ADD11R,1.949169X0.815200*%
%ADD12R,2.955600X0.815200*%
%ADD13R,1.949169X0.789700*%
%ADD14R,0.789700X1.949169*%
%ADD15R,0.815200X1.949169*%
%ADD16C,1.473200*%
%ADD17R,1.203200X1.303200*%
%ADD18C,0.959600*%


D10*
X69500Y650000D03*
X635000Y650000D03*
X30000Y109000D03*
X660000Y109000D03*
D11*
X282982Y420100D03*
D12*
X288006Y430300D03*
D11*
X282982Y409900D03*
X282982Y399700D03*
X282982Y389500D03*
D13*
X282982Y379300D03*
D14*
X295900Y366382D03*
D15*
X306100Y366382D03*
X316300Y366382D03*
X326500Y366382D03*
X336700Y366382D03*
X346900Y366382D03*
X357100Y366382D03*
X367300Y366382D03*
X377500Y366382D03*
X387700Y366382D03*
X397900Y366382D03*
D14*
X408100Y366382D03*
D13*
X421018Y379300D03*
D11*
X421018Y389500D03*
X421018Y399700D03*
X421018Y409900D03*
X421018Y420100D03*
X421018Y430300D03*
X421018Y440500D03*
X421018Y450700D03*
X421018Y460900D03*
X421018Y471100D03*
X421018Y481300D03*
D13*
X421018Y491500D03*
D14*
X408100Y504418D03*
D15*
X397900Y504418D03*
X387700Y504418D03*
X377500Y504418D03*
X367300Y504418D03*
X357100Y504418D03*
X346900Y504418D03*
X336700Y504418D03*
X326500Y504418D03*
X316300Y504418D03*
X306100Y504418D03*
D14*
X295900Y504418D03*
D13*
X282982Y491500D03*
D11*
X282982Y481300D03*
X282982Y471100D03*
X282982Y460900D03*
X282982Y450700D03*
X282982Y440500D03*
D16*
X614759Y94950D03*
X70945Y125430D03*
D17*
X153822Y242790D03*
X153822Y225790D03*
X175082Y242790D03*
X175082Y225790D03*
X152857Y280915D03*
X152857Y263915D03*
X176530Y280915D03*
X176530Y263915D03*
D18*
X122174Y260858D03*
X615442Y230124D03*
X565912Y257810D03*
X615188Y278384D03*
X565658Y306070D03*
X540258Y214122D03*
X615188Y325374D03*
X518668Y329692D03*
X565658Y353060D03*
X518414Y376682D03*
X614426Y375158D03*
X448310Y349250D03*
X356616Y272796D03*
X356362Y209550D03*
X263906Y327406D03*
X263906Y280416D03*
X264160Y232156D03*
X275844Y184150D03*
X565912Y403098D03*
X571754Y38100D03*
X486918Y94996D03*
X518668Y38100D03*
X465328Y38100D03*
X412242Y38100D03*
X357124Y37846D03*
X304038Y37846D03*
X250698Y37846D03*
X197612Y37846D03*
X250698Y95504D03*
X197612Y95504D03*
X378714Y94742D03*
X304038Y95504D03*
X433832Y94996D03*
X146050Y38100D03*
X92964Y38100D03*
X115824Y336042D03*
X52832Y324612D03*
X52832Y277622D03*
X53086Y229362D03*
X115570Y389128D03*
X53086Y376682D03*
X52832Y424942D03*
X52832Y471932D03*
X153670Y457200D03*
X120142Y499110D03*
X148082Y549656D03*
X259080Y529590D03*
X169164Y657352D03*
X196088Y598170D03*
X121412Y616966D03*
X74930Y569722D03*
X127254Y711200D03*
X198882Y710946D03*
X262890Y711708D03*
X437388Y617982D03*
X441960Y575056D03*
X402336Y648970D03*
X357378Y649732D03*
X316484Y659892D03*
X325882Y614680D03*
X325628Y578104D03*
X259080Y562864D03*
X435356Y711708D03*
X495300Y710946D03*
X493522Y662178D03*
X562102Y660908D03*
X560832Y710184D03*
X562610Y612140D03*
X564642Y558292D03*
X611886Y587756D03*
X611886Y530098D03*
X612394Y477266D03*
X565658Y498348D03*
X565658Y451358D03*
X614172Y423418D03*
X594614Y150114D03*
X581152Y95758D03*
X488950Y149098D03*
X451104Y148844D03*
X413004Y148844D03*
X375158Y149098D03*
X330708Y148082D03*
X534733Y156197D03*
X541160Y162624D03*
X316791Y344068D03*
X325879Y344068D03*
X389105Y184531D03*
X398193Y184531D03*
X357660Y346812D03*
X366748Y346812D03*
X465280Y184480D03*
X474368Y184480D03*
X398503Y347066D03*
X438155Y471098D03*
X301600Y384124D03*
X438912Y409880D03*
X438582Y450698D03*
X183058Y408584D03*
X172136Y397916D03*
X161366Y389941D03*
X158598Y357048D03*
X151917Y366293D03*
X345567Y398323D03*
X186944Y370840D03*
X206273Y375844D03*
X212141Y335991D03*
X264058Y419303D03*
X158826Y345846D03*
X407591Y347066D03*
X316306Y521081D03*
X336677Y521081D03*
X387680Y521081D03*
X408102Y521081D03*
X403835Y481279D03*
X352755Y486613D03*
X310236Y430301D03*
X404038Y382270D03*
X192227Y281076D03*
X137185Y280670D03*
X137160Y413944D03*
X124358Y95174D03*
X192710Y524891D03*
X481228Y551282D03*
X535000Y94539D03*
X146101Y95275D03*
X248869Y620039D03*
X138049Y242748D03*
X190830Y242824D03*
X110769Y160807D03*
M02*
