G04 EAGLE Gerber X2 export*
G75*
%MOMM*%
%FSLAX34Y34*%
%LPD*%
%AMOC8*
5,1,8,0,0,1.08239X$1,22.5*%
G01*
%ADD10R,1.000000X1.100000*%
%ADD11R,1.100000X1.000000*%
%ADD12R,1.800000X1.600000*%
%ADD13R,1.600000X1.800000*%
%ADD14C,0.120000*%
%ADD15R,0.450000X1.380000*%
%ADD16R,1.475000X2.100000*%
%ADD17R,1.175000X1.900000*%
%ADD18R,2.375000X1.900000*%
%ADD19C,0.635000*%
%ADD20R,0.279400X1.676400*%


D10*
X224333Y497902D03*
X224333Y514902D03*
X368960Y385163D03*
X368960Y402163D03*
D11*
X323180Y414274D03*
X340180Y414274D03*
X340248Y486624D03*
X323248Y486624D03*
D10*
X387652Y481268D03*
X387652Y498268D03*
X285369Y638680D03*
X285369Y621680D03*
X285394Y591515D03*
X285394Y608515D03*
D11*
X247557Y657258D03*
X264557Y657258D03*
X387777Y536989D03*
X404777Y536989D03*
X421165Y521037D03*
X438165Y521037D03*
D10*
X336702Y533287D03*
X336702Y550287D03*
D11*
X185963Y563438D03*
X202963Y563438D03*
X316304Y536781D03*
X299304Y536781D03*
D12*
X387743Y578712D03*
X387743Y606712D03*
X366812Y578700D03*
X366812Y606700D03*
D11*
X316302Y557146D03*
X299302Y557146D03*
D10*
X357159Y533296D03*
X357159Y550296D03*
D11*
X421166Y541567D03*
X438166Y541567D03*
X387770Y557297D03*
X404770Y557297D03*
D10*
X512673Y575599D03*
X512673Y558599D03*
D11*
X474681Y593821D03*
X491681Y593821D03*
D10*
X512698Y528372D03*
X512698Y545372D03*
X224320Y545054D03*
X224320Y528054D03*
D11*
X491783Y450737D03*
X508783Y450737D03*
X491770Y471042D03*
X508770Y471042D03*
D10*
X474626Y450704D03*
X474626Y433704D03*
X475259Y409856D03*
X475259Y392856D03*
D11*
X491775Y491340D03*
X508775Y491340D03*
D10*
X454268Y450740D03*
X454268Y433740D03*
X454903Y409869D03*
X454903Y392869D03*
X317207Y384149D03*
X317207Y367149D03*
X337476Y384149D03*
X337476Y367149D03*
X389192Y385146D03*
X389192Y402146D03*
D11*
X310145Y414287D03*
X293145Y414287D03*
D10*
X367449Y481298D03*
X367449Y498298D03*
D11*
X340300Y466345D03*
X323300Y466345D03*
D13*
X357858Y455086D03*
X385858Y455086D03*
X357774Y434680D03*
X385774Y434680D03*
D14*
X496022Y523721D02*
X496022Y536821D01*
X496022Y523721D02*
X492422Y523721D01*
X492422Y536821D01*
X496022Y536821D01*
X496022Y524920D02*
X492422Y524920D01*
X492422Y526119D02*
X496022Y526119D01*
X496022Y527318D02*
X492422Y527318D01*
X492422Y528517D02*
X496022Y528517D01*
X496022Y529716D02*
X492422Y529716D01*
X492422Y530915D02*
X496022Y530915D01*
X496022Y532114D02*
X492422Y532114D01*
X492422Y533313D02*
X496022Y533313D01*
X496022Y534512D02*
X492422Y534512D01*
X492422Y535711D02*
X496022Y535711D01*
X489522Y536821D02*
X489522Y523721D01*
X485922Y523721D01*
X485922Y536821D01*
X489522Y536821D01*
X489522Y524920D02*
X485922Y524920D01*
X485922Y526119D02*
X489522Y526119D01*
X489522Y527318D02*
X485922Y527318D01*
X485922Y528517D02*
X489522Y528517D01*
X489522Y529716D02*
X485922Y529716D01*
X485922Y530915D02*
X489522Y530915D01*
X489522Y532114D02*
X485922Y532114D01*
X485922Y533313D02*
X489522Y533313D01*
X489522Y534512D02*
X485922Y534512D01*
X485922Y535711D02*
X489522Y535711D01*
X483022Y536821D02*
X483022Y523721D01*
X479422Y523721D01*
X479422Y536821D01*
X483022Y536821D01*
X483022Y524920D02*
X479422Y524920D01*
X479422Y526119D02*
X483022Y526119D01*
X483022Y527318D02*
X479422Y527318D01*
X479422Y528517D02*
X483022Y528517D01*
X483022Y529716D02*
X479422Y529716D01*
X479422Y530915D02*
X483022Y530915D01*
X483022Y532114D02*
X479422Y532114D01*
X479422Y533313D02*
X483022Y533313D01*
X483022Y534512D02*
X479422Y534512D01*
X479422Y535711D02*
X483022Y535711D01*
X476522Y536821D02*
X476522Y523721D01*
X472922Y523721D01*
X472922Y536821D01*
X476522Y536821D01*
X476522Y524920D02*
X472922Y524920D01*
X472922Y526119D02*
X476522Y526119D01*
X476522Y527318D02*
X472922Y527318D01*
X472922Y528517D02*
X476522Y528517D01*
X476522Y529716D02*
X472922Y529716D01*
X472922Y530915D02*
X476522Y530915D01*
X476522Y532114D02*
X472922Y532114D01*
X472922Y533313D02*
X476522Y533313D01*
X476522Y534512D02*
X472922Y534512D01*
X472922Y535711D02*
X476522Y535711D01*
X476522Y567121D02*
X476522Y580221D01*
X476522Y567121D02*
X472922Y567121D01*
X472922Y580221D01*
X476522Y580221D01*
X476522Y568320D02*
X472922Y568320D01*
X472922Y569519D02*
X476522Y569519D01*
X476522Y570718D02*
X472922Y570718D01*
X472922Y571917D02*
X476522Y571917D01*
X476522Y573116D02*
X472922Y573116D01*
X472922Y574315D02*
X476522Y574315D01*
X476522Y575514D02*
X472922Y575514D01*
X472922Y576713D02*
X476522Y576713D01*
X476522Y577912D02*
X472922Y577912D01*
X472922Y579111D02*
X476522Y579111D01*
X483022Y580221D02*
X483022Y567121D01*
X479422Y567121D01*
X479422Y580221D01*
X483022Y580221D01*
X483022Y568320D02*
X479422Y568320D01*
X479422Y569519D02*
X483022Y569519D01*
X483022Y570718D02*
X479422Y570718D01*
X479422Y571917D02*
X483022Y571917D01*
X483022Y573116D02*
X479422Y573116D01*
X479422Y574315D02*
X483022Y574315D01*
X483022Y575514D02*
X479422Y575514D01*
X479422Y576713D02*
X483022Y576713D01*
X483022Y577912D02*
X479422Y577912D01*
X479422Y579111D02*
X483022Y579111D01*
X489522Y580221D02*
X489522Y567121D01*
X485922Y567121D01*
X485922Y580221D01*
X489522Y580221D01*
X489522Y568320D02*
X485922Y568320D01*
X485922Y569519D02*
X489522Y569519D01*
X489522Y570718D02*
X485922Y570718D01*
X485922Y571917D02*
X489522Y571917D01*
X489522Y573116D02*
X485922Y573116D01*
X485922Y574315D02*
X489522Y574315D01*
X489522Y575514D02*
X485922Y575514D01*
X485922Y576713D02*
X489522Y576713D01*
X489522Y577912D02*
X485922Y577912D01*
X485922Y579111D02*
X489522Y579111D01*
X496022Y580221D02*
X496022Y567121D01*
X492422Y567121D01*
X492422Y580221D01*
X496022Y580221D01*
X496022Y568320D02*
X492422Y568320D01*
X492422Y569519D02*
X496022Y569519D01*
X496022Y570718D02*
X492422Y570718D01*
X492422Y571917D02*
X496022Y571917D01*
X496022Y573116D02*
X492422Y573116D01*
X492422Y574315D02*
X496022Y574315D01*
X496022Y575514D02*
X492422Y575514D01*
X492422Y576713D02*
X496022Y576713D01*
X496022Y577912D02*
X492422Y577912D01*
X492422Y579111D02*
X496022Y579111D01*
X207676Y506363D02*
X207676Y493263D01*
X204076Y493263D01*
X204076Y506363D01*
X207676Y506363D01*
X207676Y494462D02*
X204076Y494462D01*
X204076Y495661D02*
X207676Y495661D01*
X207676Y496860D02*
X204076Y496860D01*
X204076Y498059D02*
X207676Y498059D01*
X207676Y499258D02*
X204076Y499258D01*
X204076Y500457D02*
X207676Y500457D01*
X207676Y501656D02*
X204076Y501656D01*
X204076Y502855D02*
X207676Y502855D01*
X207676Y504054D02*
X204076Y504054D01*
X204076Y505253D02*
X207676Y505253D01*
X201176Y506363D02*
X201176Y493263D01*
X197576Y493263D01*
X197576Y506363D01*
X201176Y506363D01*
X201176Y494462D02*
X197576Y494462D01*
X197576Y495661D02*
X201176Y495661D01*
X201176Y496860D02*
X197576Y496860D01*
X197576Y498059D02*
X201176Y498059D01*
X201176Y499258D02*
X197576Y499258D01*
X197576Y500457D02*
X201176Y500457D01*
X201176Y501656D02*
X197576Y501656D01*
X197576Y502855D02*
X201176Y502855D01*
X201176Y504054D02*
X197576Y504054D01*
X197576Y505253D02*
X201176Y505253D01*
X194676Y506363D02*
X194676Y493263D01*
X191076Y493263D01*
X191076Y506363D01*
X194676Y506363D01*
X194676Y494462D02*
X191076Y494462D01*
X191076Y495661D02*
X194676Y495661D01*
X194676Y496860D02*
X191076Y496860D01*
X191076Y498059D02*
X194676Y498059D01*
X194676Y499258D02*
X191076Y499258D01*
X191076Y500457D02*
X194676Y500457D01*
X194676Y501656D02*
X191076Y501656D01*
X191076Y502855D02*
X194676Y502855D01*
X194676Y504054D02*
X191076Y504054D01*
X191076Y505253D02*
X194676Y505253D01*
X188176Y506363D02*
X188176Y493263D01*
X184576Y493263D01*
X184576Y506363D01*
X188176Y506363D01*
X188176Y494462D02*
X184576Y494462D01*
X184576Y495661D02*
X188176Y495661D01*
X188176Y496860D02*
X184576Y496860D01*
X184576Y498059D02*
X188176Y498059D01*
X188176Y499258D02*
X184576Y499258D01*
X184576Y500457D02*
X188176Y500457D01*
X188176Y501656D02*
X184576Y501656D01*
X184576Y502855D02*
X188176Y502855D01*
X188176Y504054D02*
X184576Y504054D01*
X184576Y505253D02*
X188176Y505253D01*
X188176Y536663D02*
X188176Y549763D01*
X188176Y536663D02*
X184576Y536663D01*
X184576Y549763D01*
X188176Y549763D01*
X188176Y537862D02*
X184576Y537862D01*
X184576Y539061D02*
X188176Y539061D01*
X188176Y540260D02*
X184576Y540260D01*
X184576Y541459D02*
X188176Y541459D01*
X188176Y542658D02*
X184576Y542658D01*
X184576Y543857D02*
X188176Y543857D01*
X188176Y545056D02*
X184576Y545056D01*
X184576Y546255D02*
X188176Y546255D01*
X188176Y547454D02*
X184576Y547454D01*
X184576Y548653D02*
X188176Y548653D01*
X194676Y549763D02*
X194676Y536663D01*
X191076Y536663D01*
X191076Y549763D01*
X194676Y549763D01*
X194676Y537862D02*
X191076Y537862D01*
X191076Y539061D02*
X194676Y539061D01*
X194676Y540260D02*
X191076Y540260D01*
X191076Y541459D02*
X194676Y541459D01*
X194676Y542658D02*
X191076Y542658D01*
X191076Y543857D02*
X194676Y543857D01*
X194676Y545056D02*
X191076Y545056D01*
X191076Y546255D02*
X194676Y546255D01*
X194676Y547454D02*
X191076Y547454D01*
X191076Y548653D02*
X194676Y548653D01*
X201176Y549763D02*
X201176Y536663D01*
X197576Y536663D01*
X197576Y549763D01*
X201176Y549763D01*
X201176Y537862D02*
X197576Y537862D01*
X197576Y539061D02*
X201176Y539061D01*
X201176Y540260D02*
X197576Y540260D01*
X197576Y541459D02*
X201176Y541459D01*
X201176Y542658D02*
X197576Y542658D01*
X197576Y543857D02*
X201176Y543857D01*
X201176Y545056D02*
X197576Y545056D01*
X197576Y546255D02*
X201176Y546255D01*
X201176Y547454D02*
X197576Y547454D01*
X197576Y548653D02*
X201176Y548653D01*
X207676Y549763D02*
X207676Y536663D01*
X204076Y536663D01*
X204076Y549763D01*
X207676Y549763D01*
X207676Y537862D02*
X204076Y537862D01*
X204076Y539061D02*
X207676Y539061D01*
X207676Y540260D02*
X204076Y540260D01*
X204076Y541459D02*
X207676Y541459D01*
X207676Y542658D02*
X204076Y542658D01*
X204076Y543857D02*
X207676Y543857D01*
X207676Y545056D02*
X204076Y545056D01*
X204076Y546255D02*
X207676Y546255D01*
X207676Y547454D02*
X204076Y547454D01*
X204076Y548653D02*
X207676Y548653D01*
X268832Y586989D02*
X268832Y600089D01*
X268832Y586989D02*
X265232Y586989D01*
X265232Y600089D01*
X268832Y600089D01*
X268832Y588188D02*
X265232Y588188D01*
X265232Y589387D02*
X268832Y589387D01*
X268832Y590586D02*
X265232Y590586D01*
X265232Y591785D02*
X268832Y591785D01*
X268832Y592984D02*
X265232Y592984D01*
X265232Y594183D02*
X268832Y594183D01*
X268832Y595382D02*
X265232Y595382D01*
X265232Y596581D02*
X268832Y596581D01*
X268832Y597780D02*
X265232Y597780D01*
X265232Y598979D02*
X268832Y598979D01*
X262332Y600089D02*
X262332Y586989D01*
X258732Y586989D01*
X258732Y600089D01*
X262332Y600089D01*
X262332Y588188D02*
X258732Y588188D01*
X258732Y589387D02*
X262332Y589387D01*
X262332Y590586D02*
X258732Y590586D01*
X258732Y591785D02*
X262332Y591785D01*
X262332Y592984D02*
X258732Y592984D01*
X258732Y594183D02*
X262332Y594183D01*
X262332Y595382D02*
X258732Y595382D01*
X258732Y596581D02*
X262332Y596581D01*
X262332Y597780D02*
X258732Y597780D01*
X258732Y598979D02*
X262332Y598979D01*
X255832Y600089D02*
X255832Y586989D01*
X252232Y586989D01*
X252232Y600089D01*
X255832Y600089D01*
X255832Y588188D02*
X252232Y588188D01*
X252232Y589387D02*
X255832Y589387D01*
X255832Y590586D02*
X252232Y590586D01*
X252232Y591785D02*
X255832Y591785D01*
X255832Y592984D02*
X252232Y592984D01*
X252232Y594183D02*
X255832Y594183D01*
X255832Y595382D02*
X252232Y595382D01*
X252232Y596581D02*
X255832Y596581D01*
X255832Y597780D02*
X252232Y597780D01*
X252232Y598979D02*
X255832Y598979D01*
X249332Y600089D02*
X249332Y586989D01*
X245732Y586989D01*
X245732Y600089D01*
X249332Y600089D01*
X249332Y588188D02*
X245732Y588188D01*
X245732Y589387D02*
X249332Y589387D01*
X249332Y590586D02*
X245732Y590586D01*
X245732Y591785D02*
X249332Y591785D01*
X249332Y592984D02*
X245732Y592984D01*
X245732Y594183D02*
X249332Y594183D01*
X249332Y595382D02*
X245732Y595382D01*
X245732Y596581D02*
X249332Y596581D01*
X249332Y597780D02*
X245732Y597780D01*
X245732Y598979D02*
X249332Y598979D01*
X249332Y630389D02*
X249332Y643489D01*
X249332Y630389D02*
X245732Y630389D01*
X245732Y643489D01*
X249332Y643489D01*
X249332Y631588D02*
X245732Y631588D01*
X245732Y632787D02*
X249332Y632787D01*
X249332Y633986D02*
X245732Y633986D01*
X245732Y635185D02*
X249332Y635185D01*
X249332Y636384D02*
X245732Y636384D01*
X245732Y637583D02*
X249332Y637583D01*
X249332Y638782D02*
X245732Y638782D01*
X245732Y639981D02*
X249332Y639981D01*
X249332Y641180D02*
X245732Y641180D01*
X245732Y642379D02*
X249332Y642379D01*
X255832Y643489D02*
X255832Y630389D01*
X252232Y630389D01*
X252232Y643489D01*
X255832Y643489D01*
X255832Y631588D02*
X252232Y631588D01*
X252232Y632787D02*
X255832Y632787D01*
X255832Y633986D02*
X252232Y633986D01*
X252232Y635185D02*
X255832Y635185D01*
X255832Y636384D02*
X252232Y636384D01*
X252232Y637583D02*
X255832Y637583D01*
X255832Y638782D02*
X252232Y638782D01*
X252232Y639981D02*
X255832Y639981D01*
X255832Y641180D02*
X252232Y641180D01*
X252232Y642379D02*
X255832Y642379D01*
X262332Y643489D02*
X262332Y630389D01*
X258732Y630389D01*
X258732Y643489D01*
X262332Y643489D01*
X262332Y631588D02*
X258732Y631588D01*
X258732Y632787D02*
X262332Y632787D01*
X262332Y633986D02*
X258732Y633986D01*
X258732Y635185D02*
X262332Y635185D01*
X262332Y636384D02*
X258732Y636384D01*
X258732Y637583D02*
X262332Y637583D01*
X262332Y638782D02*
X258732Y638782D01*
X258732Y639981D02*
X262332Y639981D01*
X262332Y641180D02*
X258732Y641180D01*
X258732Y642379D02*
X262332Y642379D01*
X268832Y643489D02*
X268832Y630389D01*
X265232Y630389D01*
X265232Y643489D01*
X268832Y643489D01*
X268832Y631588D02*
X265232Y631588D01*
X265232Y632787D02*
X268832Y632787D01*
X268832Y633986D02*
X265232Y633986D01*
X265232Y635185D02*
X268832Y635185D01*
X268832Y636384D02*
X265232Y636384D01*
X265232Y637583D02*
X268832Y637583D01*
X268832Y638782D02*
X265232Y638782D01*
X265232Y639981D02*
X268832Y639981D01*
X268832Y641180D02*
X265232Y641180D01*
X265232Y642379D02*
X268832Y642379D01*
D15*
X333228Y711407D03*
X339728Y711407D03*
X346228Y711407D03*
X352728Y711407D03*
X359228Y711407D03*
D16*
X370853Y715007D03*
X321603Y715007D03*
D17*
X337853Y738007D03*
X354603Y738007D03*
D18*
X317103Y738007D03*
X375353Y738007D03*
D10*
X467389Y471124D03*
X450389Y471124D03*
D19*
X590502Y63200D03*
X577802Y63200D03*
X565102Y63200D03*
X552402Y63200D03*
X539702Y63200D03*
X527002Y63200D03*
X514302Y63200D03*
X501602Y63200D03*
X488902Y63200D03*
X476202Y63200D03*
X463502Y63200D03*
X450802Y63200D03*
X438102Y63200D03*
X425402Y63200D03*
X412702Y63200D03*
X400002Y63200D03*
X387302Y63200D03*
X374602Y63200D03*
X361902Y63200D03*
X349202Y63200D03*
X336502Y63200D03*
X323802Y63200D03*
X311102Y63200D03*
X298402Y63200D03*
X285702Y63200D03*
X273002Y63200D03*
X260302Y63200D03*
X247602Y63200D03*
X234902Y63200D03*
X222202Y63200D03*
X209502Y63200D03*
X196802Y63200D03*
X184102Y63200D03*
X171402Y63200D03*
X158702Y63200D03*
X146002Y63200D03*
X133302Y63200D03*
X120602Y63200D03*
X107902Y63200D03*
X95202Y63200D03*
X590502Y75900D03*
X577802Y75900D03*
X565102Y75900D03*
X552402Y75900D03*
X539702Y75900D03*
X527002Y75900D03*
X514302Y75900D03*
X501602Y75900D03*
X488902Y75900D03*
X476202Y75900D03*
X463502Y75900D03*
X450802Y75900D03*
X438102Y75900D03*
X425402Y75900D03*
X412702Y75900D03*
X400002Y75900D03*
X387302Y75900D03*
X374602Y75900D03*
X361902Y75900D03*
X349202Y75900D03*
X336502Y75900D03*
X323802Y75900D03*
X311102Y75900D03*
X298402Y75900D03*
X285702Y75900D03*
X273002Y75900D03*
X260302Y75900D03*
X247602Y75900D03*
X234902Y75900D03*
X222202Y75900D03*
X209502Y75900D03*
X196802Y75900D03*
X184102Y75900D03*
X171402Y75900D03*
X158702Y75900D03*
X146002Y75900D03*
X133302Y75900D03*
X120602Y75900D03*
X107902Y75900D03*
X95202Y75900D03*
X590502Y114000D03*
X577802Y114000D03*
X565102Y114000D03*
X552402Y114000D03*
X539702Y114000D03*
X527002Y114000D03*
X514302Y114000D03*
X501602Y114000D03*
X488902Y114000D03*
X476202Y114000D03*
X463502Y114000D03*
X450802Y114000D03*
X438102Y114000D03*
X425402Y114000D03*
X412702Y114000D03*
X400002Y114000D03*
X387302Y114000D03*
X374602Y114000D03*
X361902Y114000D03*
X349202Y114000D03*
X336502Y114000D03*
X323802Y114000D03*
X311102Y114000D03*
X298402Y114000D03*
X285702Y114000D03*
X273002Y114000D03*
X260302Y114000D03*
X247602Y114000D03*
X234902Y114000D03*
X222202Y114000D03*
X209502Y114000D03*
X196802Y114000D03*
X184102Y114000D03*
X171402Y114000D03*
X158702Y114000D03*
X146002Y114000D03*
X133302Y114000D03*
X120602Y114000D03*
X107902Y114000D03*
X95202Y114000D03*
X590502Y126700D03*
X577802Y126700D03*
X565102Y126700D03*
X552402Y126700D03*
X539702Y126700D03*
X527002Y126700D03*
X514302Y126700D03*
X501602Y126700D03*
X488902Y126700D03*
X476202Y126700D03*
X463502Y126700D03*
X450802Y126700D03*
X438102Y126700D03*
X425402Y126700D03*
X412702Y126700D03*
X400002Y126700D03*
X387302Y126700D03*
X374602Y126700D03*
X361902Y126700D03*
X349202Y126700D03*
X336502Y126700D03*
X323802Y126700D03*
X311102Y126700D03*
X298402Y126700D03*
X285702Y126700D03*
X273002Y126700D03*
X260302Y126700D03*
X247602Y126700D03*
X234902Y126700D03*
X222202Y126700D03*
X209502Y126700D03*
X196802Y126700D03*
X184102Y126700D03*
X171402Y126700D03*
X158702Y126700D03*
X146002Y126700D03*
X133302Y126700D03*
X120602Y126700D03*
X107902Y126700D03*
X95202Y126700D03*
D20*
X107219Y297688D03*
X112219Y297688D03*
X117219Y297688D03*
X122219Y297688D03*
X127219Y297688D03*
X132219Y297688D03*
X137219Y297688D03*
X142219Y297688D03*
X147219Y297688D03*
X152219Y297688D03*
X157219Y297688D03*
X162219Y297688D03*
X167219Y297688D03*
X172219Y297688D03*
X177219Y297688D03*
X182219Y297688D03*
X187219Y297688D03*
X192219Y297688D03*
X197219Y297688D03*
X202219Y297688D03*
X207219Y297688D03*
X212219Y297688D03*
X217219Y297688D03*
X222219Y297688D03*
X222219Y224282D03*
X217219Y224282D03*
X212219Y224282D03*
X207219Y224282D03*
X202219Y224282D03*
X197219Y224282D03*
X192219Y224282D03*
X187219Y224282D03*
X182219Y224282D03*
X177219Y224282D03*
X172219Y224282D03*
X167219Y224282D03*
X162219Y224282D03*
X157219Y224282D03*
X152219Y224282D03*
X147219Y224282D03*
X142219Y224282D03*
X137219Y224282D03*
X132219Y224282D03*
X127219Y224282D03*
X122219Y224282D03*
X117219Y224282D03*
X112219Y224282D03*
X107219Y224282D03*
M02*
